BreeSerif-Regular-kernagic.ufo
<glyph name="exclam" format="1">
  <advance width="327"></advance>
  <unicode hex="0021"></unicode>
  <outline>
    <contour>
      <point x="103" y="529" type="line"></point>
      <point x="124" y="180" type="line"></point>
      <point x="195" y="180" type="line"></point>
      <point x="215" y="529" type="line"></point>
      <point x="215" y="646" type="line" smooth="yes"></point>
      <point x="215" y="673"></point>
      <point x="202" y="695"></point>
      <point x="158" y="695" type="curve" smooth="yes"></point>
      <point x="117" y="695"></point>
      <point x="103" y="673"></point>
      <point x="103" y="648" type="curve" smooth="yes"></point>
    </contour>
    <contour>
      <point x="89" y="50" type="curve" smooth="yes"></point>
      <point x="89" y="13"></point>
      <point x="114" y="-17"></point>
      <point x="159" y="-17" type="curve" smooth="yes"></point>
      <point x="201" y="-17"></point>
      <point x="226" y="15"></point>
      <point x="226" y="51" type="curve" smooth="yes"></point>
      <point x="226" y="88"></point>
      <point x="200" y="116"></point>
      <point x="156" y="116" type="curve" smooth="yes"></point>
      <point x="117" y="116"></point>
      <point x="89" y="86"></point>
    </contour>
  </outline>
</glyph>
<glyph name="quotedbl" format="1">
  <advance width="403"></advance>
  <unicode hex="0022"></unicode>
  <outline>
    <contour>
      <point x="80" y="665" type="line"></point>
      <point x="90" y="435" type="line"></point>
      <point x="163" y="435" type="line"></point>
      <point x="173" y="665" type="line"></point>
    </contour>
    <contour>
      <point x="223" y="665" type="line"></point>
      <point x="233" y="435" type="line"></point>
      <point x="307" y="435" type="line"></point>
      <point x="316" y="665" type="line"></point>
    </contour>
  </outline>
</glyph>
<glyph name="numbersign" format="1">
  <advance width="504"></advance>
  <unicode hex="0023"></unicode>
  <outline>
    <contour>
      <point x="280" y="0" type="line"></point>
      <point x="353" y="0" type="line"></point>
      <point x="366" y="157" type="line"></point>
      <point x="473" y="157" type="line"></point>
      <point x="473" y="223" type="line"></point>
      <point x="372" y="223" type="line"></point>
      <point x="386" y="379" type="line"></point>
      <point x="492" y="379" type="line"></point>
      <point x="492" y="445" type="line"></point>
      <point x="391" y="445" type="line"></point>
      <point x="406" y="605" type="line"></point>
      <point x="333" y="605" type="line"></point>
      <point x="318" y="445" type="line"></point>
      <point x="208" y="445" type="line"></point>
      <point x="223" y="605" type="line"></point>
      <point x="150" y="605" type="line"></point>
      <point x="135" y="445" type="line"></point>
      <point x="28" y="445" type="line"></point>
      <point x="28" y="379" type="line"></point>
      <point x="130" y="379" type="line"></point>
      <point x="116" y="223" type="line"></point>
      <point x="9" y="223" type="line"></point>
      <point x="9" y="157" type="line"></point>
      <point x="110" y="157" type="line"></point>
      <point x="97" y="0" type="line"></point>
      <point x="170" y="0" type="line"></point>
      <point x="183" y="157" type="line"></point>
      <point x="293" y="157" type="line"></point>
    </contour>
    <contour>
      <point x="203" y="379" type="line"></point>
      <point x="313" y="379" type="line"></point>
      <point x="299" y="223" type="line"></point>
      <point x="189" y="223" type="line"></point>
    </contour>
  </outline>
</glyph>
<glyph name="dollar" format="1">
  <advance width="529"></advance>
  <unicode hex="0024"></unicode>
  <outline>
    <contour>
      <point x="226" y="-91" type="line"></point>
      <point x="301" y="-91" type="line"></point>
      <point x="301" y="12" type="line"></point>
      <point x="407" y="28"></point>
      <point x="482" y="93"></point>
      <point x="482" y="201" type="curve" smooth="yes"></point>
      <point x="482" y="322"></point>
      <point x="390" y="361"></point>
      <point x="302" y="388" type="curve"></point>
      <point x="301" y="388" type="line"></point>
      <point x="301" y="564" type="line"></point>
      <point x="314" y="563"></point>
      <point x="327" y="560"></point>
      <point x="338" y="557" type="curve"></point>
      <point x="355" y="551"></point>
      <point x="358" y="544"></point>
      <point x="358" y="526" type="curve" smooth="yes"></point>
      <point x="358" y="472" type="line"></point>
      <point x="456" y="478" type="line"></point>
      <point x="456" y="619" type="line"></point>
      <point x="407" y="642"></point>
      <point x="355" y="654"></point>
      <point x="301" y="657" type="curve"></point>
      <point x="301" y="747" type="line"></point>
      <point x="226" y="747" type="line"></point>
      <point x="226" y="655" type="line"></point>
      <point x="120" y="640"></point>
      <point x="51" y="573"></point>
      <point x="51" y="473" type="curve" smooth="yes"></point>
      <point x="51" y="357"></point>
      <point x="134" y="318"></point>
      <point x="226" y="293" type="curve"></point>
      <point x="226" y="106" type="line"></point>
      <point x="206" y="106"></point>
      <point x="187" y="109"></point>
      <point x="173" y="114" type="curve" smooth="yes"></point>
      <point x="156" y="120"></point>
      <point x="153" y="127"></point>
      <point x="153" y="145" type="curve" smooth="yes"></point>
      <point x="153" y="203" type="line"></point>
      <point x="54" y="196" type="line"></point>
      <point x="54" y="47" type="line"></point>
      <point x="106" y="23"></point>
      <point x="160" y="11"></point>
      <point x="226" y="9" type="curve"></point>
    </contour>
    <contour>
      <point x="358" y="196" type="curve" smooth="yes"></point>
      <point x="358" y="149"></point>
      <point x="335" y="124"></point>
      <point x="301" y="113" type="curve"></point>
      <point x="301" y="269" type="line"></point>
      <point x="335" y="255"></point>
      <point x="358" y="234"></point>
    </contour>
    <contour>
      <point x="174" y="484" type="curve" smooth="yes"></point>
      <point x="174" y="524"></point>
      <point x="194" y="547"></point>
      <point x="226" y="558" type="curve"></point>
      <point x="226" y="414" type="line"></point>
      <point x="194" y="429"></point>
      <point x="174" y="448"></point>
    </contour>
  </outline>
</glyph>
<glyph name="percent" format="1">
  <advance width="806"></advance>
  <unicode hex="0025"></unicode>
  <outline>
    <contour>
      <point x="617" y="351" type="curve" smooth="yes"></point>
      <point x="522" y="351"></point>
      <point x="458" y="287"></point>
      <point x="458" y="168" type="curve" smooth="yes"></point>
      <point x="458" y="48"></point>
      <point x="512" y="-14"></point>
      <point x="612" y="-14" type="curve" smooth="yes"></point>
      <point x="712" y="-14"></point>
      <point x="771" y="50"></point>
      <point x="771" y="172" type="curve" smooth="yes"></point>
      <point x="771" y="295"></point>
      <point x="709" y="351"></point>
    </contour>
    <contour>
      <point x="613" y="55" type="curve" smooth="yes"></point>
      <point x="574" y="55"></point>
      <point x="545" y="81"></point>
      <point x="545" y="165" type="curve" smooth="yes"></point>
      <point x="545" y="252"></point>
      <point x="572" y="282"></point>
      <point x="615" y="282" type="curve" smooth="yes"></point>
      <point x="654" y="282"></point>
      <point x="683" y="256"></point>
      <point x="683" y="169" type="curve" smooth="yes"></point>
      <point x="683" y="79"></point>
      <point x="651" y="55"></point>
    </contour>
    <contour>
      <point x="195" y="657" type="curve" smooth="yes"></point>
      <point x="100" y="657"></point>
      <point x="36" y="593"></point>
      <point x="36" y="474" type="curve" smooth="yes"></point>
      <point x="36" y="354"></point>
      <point x="90" y="292"></point>
      <point x="190" y="292" type="curve" smooth="yes"></point>
      <point x="290" y="292"></point>
      <point x="349" y="356"></point>
      <point x="349" y="478" type="curve" smooth="yes"></point>
      <point x="349" y="601"></point>
      <point x="287" y="657"></point>
    </contour>
    <contour>
      <point x="191" y="361" type="curve" smooth="yes"></point>
      <point x="152" y="361"></point>
      <point x="123" y="387"></point>
      <point x="123" y="471" type="curve" smooth="yes"></point>
      <point x="123" y="558"></point>
      <point x="150" y="588"></point>
      <point x="193" y="588" type="curve" smooth="yes"></point>
      <point x="232" y="588"></point>
      <point x="261" y="562"></point>
      <point x="261" y="475" type="curve" smooth="yes"></point>
      <point x="261" y="385"></point>
      <point x="229" y="361"></point>
    </contour>
    <contour>
      <point x="295" y="-9" type="line"></point>
      <point x="589" y="619" type="line"></point>
      <point x="508" y="653" type="line"></point>
      <point x="216" y="27" type="line"></point>
    </contour>
  </outline>
</glyph>
<glyph name="ampersand" format="1">
  <advance width="642"></advance>
  <unicode hex="0026"></unicode>
  <outline>
    <contour>
      <point x="437" y="220" type="curve"></point>
      <point x="339" y="303"></point>
      <point x="221" y="421"></point>
      <point x="221" y="505" type="curve" smooth="yes"></point>
      <point x="221" y="556"></point>
      <point x="247" y="582"></point>
      <point x="302" y="582" type="curve" smooth="yes"></point>
      <point x="321" y="582"></point>
      <point x="338" y="579"></point>
      <point x="355" y="574" type="curve" smooth="yes"></point>
      <point x="373" y="568"></point>
      <point x="376" y="558"></point>
      <point x="376" y="539" type="curve" smooth="yes"></point>
      <point x="376" y="478" type="line"></point>
      <point x="478" y="485" type="line"></point>
      <point x="478" y="636" type="line"></point>
      <point x="418" y="664"></point>
      <point x="364" y="677"></point>
      <point x="296" y="677" type="curve" smooth="yes"></point>
      <point x="172" y="677"></point>
      <point x="103" y="605"></point>
      <point x="103" y="507" type="curve" smooth="yes"></point>
      <point x="103" y="471"></point>
      <point x="112" y="433"></point>
      <point x="134" y="397" type="curve"></point>
      <point x="65" y="354"></point>
      <point x="12" y="287"></point>
      <point x="12" y="189" type="curve" smooth="yes"></point>
      <point x="12" y="88"></point>
      <point x="76" y="-14"></point>
      <point x="248" y="-14" type="curve" smooth="yes"></point>
      <point x="334" y="-14"></point>
      <point x="407" y="13"></point>
      <point x="454" y="60" type="curve"></point>
      <point x="501" y="22"></point>
      <point x="546" y="-11"></point>
      <point x="580" y="-34" type="curve"></point>
      <point x="646" y="53" type="line"></point>
      <point x="621" y="71"></point>
      <point x="569" y="108"></point>
      <point x="520" y="149" type="curve"></point>
      <point x="549" y="204"></point>
      <point x="562" y="265"></point>
      <point x="562" y="325" type="curve"></point>
      <point x="617" y="327" type="line"></point>
      <point x="617" y="408" type="line"></point>
      <point x="406" y="408" type="line"></point>
      <point x="406" y="330" type="line"></point>
      <point x="438" y="328" type="line" smooth="yes"></point>
      <point x="450" y="327"></point>
      <point x="456" y="324"></point>
      <point x="456" y="312" type="curve" smooth="yes"></point>
      <point x="456" y="282"></point>
      <point x="448" y="248"></point>
    </contour>
    <contour>
      <point x="370" y="130" type="curve"></point>
      <point x="343" y="100"></point>
      <point x="303" y="83"></point>
      <point x="251" y="83" type="curve" smooth="yes"></point>
      <point x="169" y="83"></point>
      <point x="128" y="131"></point>
      <point x="128" y="197" type="curve" smooth="yes"></point>
      <point x="128" y="248"></point>
      <point x="152" y="288"></point>
      <point x="189" y="314" type="curve"></point>
      <point x="235" y="252"></point>
      <point x="304" y="186"></point>
    </contour>
  </outline>
</glyph>
<glyph name="quotesingle" format="1">
  <advance width="302"></advance>
  <unicode hex="0027"></unicode>
  <outline>
    <contour>
      <point x="101" y="665" type="line"></point>
      <point x="111" y="435" type="line"></point>
      <point x="184" y="435" type="line"></point>
      <point x="194" y="665" type="line"></point>
    </contour>
  </outline>
</glyph>
<glyph name="parenleft" format="1">
  <advance width="365"></advance>
  <unicode hex="0028"></unicode>
  <outline>
    <contour>
      <point x="77" y="271" type="curve" smooth="yes"></point>
      <point x="77" y="122"></point>
      <point x="123" y="-30"></point>
      <point x="209" y="-176" type="curve"></point>
      <point x="303" y="-131" type="line"></point>
      <point x="235" y="7"></point>
      <point x="195" y="134"></point>
      <point x="195" y="276" type="curve" smooth="yes"></point>
      <point x="195" y="417"></point>
      <point x="234" y="547"></point>
      <point x="304" y="685" type="curve"></point>
      <point x="209" y="729" type="line"></point>
      <point x="125" y="582"></point>
      <point x="77" y="420"></point>
    </contour>
  </outline>
</glyph>
<glyph name="parenright" format="1">
  <advance width="365"></advance>
  <unicode hex="0029"></unicode>
  <outline>
    <contour>
      <point x="281" y="284" type="curve" smooth="yes"></point>
      <point x="281" y="433"></point>
      <point x="235" y="585"></point>
      <point x="149" y="731" type="curve"></point>
      <point x="55" y="686" type="line"></point>
      <point x="123" y="548"></point>
      <point x="163" y="421"></point>
      <point x="163" y="279" type="curve" smooth="yes"></point>
      <point x="163" y="138"></point>
      <point x="124" y="8"></point>
      <point x="54" y="-130" type="curve"></point>
      <point x="149" y="-174" type="line"></point>
      <point x="233" y="-27"></point>
      <point x="281" y="135"></point>
    </contour>
  </outline>
</glyph>
<glyph name="asterisk" format="1">
  <advance width="441"></advance>
  <unicode hex="002A"></unicode>
  <outline>
    <contour>
      <point x="170" y="557" type="line"></point>
      <point x="101" y="508" type="line" smooth="yes"></point>
      <point x="70" y="487"></point>
      <point x="66" y="448"></point>
      <point x="107" y="429" type="curve" smooth="yes"></point>
      <point x="147" y="410" type="line"></point>
      <point x="215" y="533" type="line"></point>
      <point x="263" y="444" type="line" smooth="yes"></point>
      <point x="281" y="410"></point>
      <point x="317" y="401"></point>
      <point x="343" y="438" type="curve" smooth="yes"></point>
      <point x="368" y="474" type="line"></point>
      <point x="260" y="554" type="line"></point>
      <point x="353" y="562" type="line" smooth="yes"></point>
      <point x="391" y="565"></point>
      <point x="412" y="598"></point>
      <point x="386" y="635" type="curve" smooth="yes"></point>
      <point x="361" y="671" type="line"></point>
      <point x="244" y="597" type="line"></point>
      <point x="262" y="696" type="line" smooth="yes"></point>
      <point x="269" y="734"></point>
      <point x="248" y="764"></point>
      <point x="204" y="752" type="curve" smooth="yes"></point>
      <point x="162" y="741" type="line"></point>
      <point x="194" y="599" type="line"></point>
      <point x="117" y="653" type="line" smooth="yes"></point>
      <point x="86" y="675"></point>
      <point x="50" y="667"></point>
      <point x="43" y="623" type="curve" smooth="yes"></point>
      <point x="36" y="579" type="line"></point>
    </contour>
  </outline>
</glyph>
<glyph name="plus" format="1">
  <advance width="529"></advance>
  <unicode hex="002B"></unicode>
  <outline>
    <contour>
      <point x="214" y="364" type="line"></point>
      <point x="60" y="364" type="line"></point>
      <point x="60" y="266" type="line"></point>
      <point x="214" y="266" type="line"></point>
      <point x="214" y="106" type="line"></point>
      <point x="316" y="106" type="line"></point>
      <point x="316" y="266" type="line"></point>
      <point x="470" y="266" type="line"></point>
      <point x="470" y="364" type="line"></point>
      <point x="316" y="364" type="line"></point>
      <point x="316" y="525" type="line"></point>
      <point x="214" y="525" type="line"></point>
    </contour>
  </outline>
</glyph>
<glyph name="comma" format="1">
  <advance width="340"></advance>
  <unicode hex="002C"></unicode>
  <outline>
    <contour>
      <point x="246" y="79" type="line"></point>
      <point x="212" y="100"></point>
      <point x="188" y="117"></point>
      <point x="160" y="117" type="curve" smooth="yes"></point>
      <point x="132" y="117"></point>
      <point x="115" y="97"></point>
      <point x="111" y="67" type="curve" smooth="yes"></point>
      <point x="80" y="-136" type="line"></point>
      <point x="143" y="-155" type="line"></point>
    </contour>
  </outline>
</glyph>
<glyph name="hyphen" format="1">
  <advance width="428"></advance>
  <unicode hex="002D"></unicode>
  <outline>
    <contour>
      <point x="80" y="242" type="line"></point>
      <point x="342" y="242" type="line"></point>
      <point x="342" y="334" type="line"></point>
      <point x="80" y="334" type="line"></point>
    </contour>
  </outline>
</glyph>
<glyph name="period" format="1">
  <advance width="340"></advance>
  <unicode hex="002E"></unicode>
  <outline>
    <contour>
      <point x="95" y="56" type="curve" smooth="yes"></point>
      <point x="95" y="14"></point>
      <point x="120" y="-15"></point>
      <point x="170" y="-15" type="curve" smooth="yes"></point>
      <point x="215" y="-15"></point>
      <point x="241" y="17"></point>
      <point x="241" y="57" type="curve" smooth="yes"></point>
      <point x="241" y="99"></point>
      <point x="214" y="128"></point>
      <point x="166" y="128" type="curve" smooth="yes"></point>
      <point x="122" y="128"></point>
      <point x="95" y="97"></point>
    </contour>
  </outline>
</glyph>
<glyph name="slash" format="1">
  <advance width="441"></advance>
  <unicode hex="002F"></unicode>
  <outline>
    <contour>
      <point x="126" y="-110" type="line"></point>
      <point x="434" y="718" type="line"></point>
      <point x="330" y="755" type="line"></point>
      <point x="24" y="-72" type="line"></point>
    </contour>
  </outline>
</glyph>
<glyph name="zero" format="1">
  <advance width="554"></advance>
  <unicode hex="0030"></unicode>
  <outline>
    <contour>
      <point x="282" y="657" type="curve" smooth="yes"></point>
      <point x="139" y="657"></point>
      <point x="45" y="554"></point>
      <point x="45" y="324" type="curve" smooth="yes"></point>
      <point x="45" y="91"></point>
      <point x="122" y="-10"></point>
      <point x="275" y="-10" type="curve" smooth="yes"></point>
      <point x="427" y="-10"></point>
      <point x="509" y="91"></point>
      <point x="509" y="328" type="curve" smooth="yes"></point>
      <point x="509" y="564"></point>
      <point x="422" y="657"></point>
    </contour>
    <contour>
      <point x="277" y="86" type="curve" smooth="yes"></point>
      <point x="209" y="86"></point>
      <point x="166" y="140"></point>
      <point x="166" y="313" type="curve" smooth="yes"></point>
      <point x="166" y="502"></point>
      <point x="209" y="559"></point>
      <point x="279" y="559" type="curve" smooth="yes"></point>
      <point x="345" y="559"></point>
      <point x="390" y="508"></point>
      <point x="390" y="326" type="curve" smooth="yes"></point>
      <point x="390" y="136"></point>
      <point x="343" y="86"></point>
    </contour>
  </outline>
</glyph>
<glyph name="one" format="1">
  <advance width="466"></advance>
  <unicode hex="0031"></unicode>
  <outline>
    <contour>
      <point x="209" y="121" type="line" smooth="yes"></point>
      <point x="209" y="96"></point>
      <point x="199" y="89"></point>
      <point x="180" y="88" type="curve" smooth="yes"></point>
      <point x="84" y="82" type="line"></point>
      <point x="84" y="0" type="line"></point>
      <point x="432" y="0" type="line"></point>
      <point x="432" y="85" type="line"></point>
      <point x="328" y="90" type="line"></point>
      <point x="328" y="644" type="line"></point>
      <point x="230" y="644" type="line"></point>
      <point x="48" y="531" type="line"></point>
      <point x="92" y="454" type="line"></point>
      <point x="209" y="514" type="line"></point>
    </contour>
  </outline>
</glyph>
<glyph name="two" format="1">
  <advance width="504"></advance>
  <unicode hex="0032"></unicode>
  <outline>
    <contour>
      <point x="51" y="0" type="line"></point>
      <point x="450" y="0" type="line"></point>
      <point x="450" y="99" type="line"></point>
      <point x="200" y="99" type="line"></point>
      <point x="361" y="289" type="line" smooth="yes"></point>
      <point x="414" y="353"></point>
      <point x="446" y="413"></point>
      <point x="446" y="479" type="curve" smooth="yes"></point>
      <point x="446" y="585"></point>
      <point x="379" y="657"></point>
      <point x="256" y="657" type="curve" smooth="yes"></point>
      <point x="180" y="657"></point>
      <point x="106" y="636"></point>
      <point x="54" y="610" type="curve"></point>
      <point x="54" y="450" type="line"></point>
      <point x="156" y="443" type="line"></point>
      <point x="156" y="514" type="line" smooth="yes"></point>
      <point x="156" y="533"></point>
      <point x="158" y="543"></point>
      <point x="176" y="549" type="curve" smooth="yes"></point>
      <point x="191" y="554"></point>
      <point x="208" y="557"></point>
      <point x="236" y="557" type="curve" smooth="yes"></point>
      <point x="283" y="557"></point>
      <point x="320" y="529"></point>
      <point x="320" y="471" type="curve" smooth="yes"></point>
      <point x="320" y="414"></point>
      <point x="297" y="388"></point>
      <point x="250" y="328" type="curve" smooth="yes"></point>
      <point x="51" y="77" type="line"></point>
    </contour>
  </outline>
</glyph>
<glyph name="three" format="1">
  <advance width="516"></advance>
  <unicode hex="0033"></unicode>
  <outline>
    <contour>
      <point x="175" y="373" type="line"></point>
      <point x="166" y="282" type="line"></point>
      <point x="204" y="282" type="line" smooth="yes"></point>
      <point x="312" y="282"></point>
      <point x="349" y="249"></point>
      <point x="349" y="185" type="curve" smooth="yes"></point>
      <point x="349" y="114"></point>
      <point x="304" y="88"></point>
      <point x="240" y="88" type="curve" smooth="yes"></point>
      <point x="190" y="88"></point>
      <point x="126" y="108"></point>
      <point x="83" y="132" type="curve"></point>
      <point x="48" y="37" type="line"></point>
      <point x="87" y="12"></point>
      <point x="166" y="-13"></point>
      <point x="244" y="-13" type="curve" smooth="yes"></point>
      <point x="400" y="-13"></point>
      <point x="470" y="75"></point>
      <point x="470" y="192" type="curve" smooth="yes"></point>
      <point x="470" y="245"></point>
      <point x="451" y="308"></point>
      <point x="369" y="334" type="curve"></point>
      <point x="421" y="367"></point>
      <point x="460" y="425"></point>
      <point x="460" y="497" type="curve" smooth="yes"></point>
      <point x="460" y="588"></point>
      <point x="398" y="657"></point>
      <point x="271" y="657" type="curve" smooth="yes"></point>
      <point x="191" y="657"></point>
      <point x="119" y="633"></point>
      <point x="67" y="607" type="curve"></point>
      <point x="67" y="447" type="line"></point>
      <point x="169" y="440" type="line"></point>
      <point x="169" y="512" type="line" smooth="yes"></point>
      <point x="169" y="531"></point>
      <point x="171" y="541"></point>
      <point x="189" y="547" type="curve" smooth="yes"></point>
      <point x="204" y="552"></point>
      <point x="223" y="557"></point>
      <point x="251" y="557" type="curve" smooth="yes"></point>
      <point x="309" y="557"></point>
      <point x="338" y="529"></point>
      <point x="338" y="480" type="curve" smooth="yes"></point>
      <point x="338" y="429"></point>
      <point x="313" y="395"></point>
      <point x="278" y="373" type="curve"></point>
    </contour>
  </outline>
</glyph>
<glyph name="four" format="1">
  <advance width="516"></advance>
  <unicode hex="0034"></unicode>
  <outline>
    <contour>
      <point x="337" y="462" type="line"></point>
      <point x="295" y="329" type="line"></point>
      <point x="295" y="275" type="line"></point>
      <point x="152" y="275" type="line"></point>
      <point x="313" y="612" type="line"></point>
      <point x="218" y="659" type="line"></point>
      <point x="30" y="264" type="line"></point>
      <point x="30" y="181" type="line"></point>
      <point x="286" y="181" type="line"></point>
      <point x="286" y="115" type="line" smooth="yes"></point>
      <point x="286" y="94"></point>
      <point x="274" y="88"></point>
      <point x="257" y="87" type="curve" smooth="yes"></point>
      <point x="195" y="82" type="line"></point>
      <point x="195" y="0" type="line"></point>
      <point x="489" y="0" type="line"></point>
      <point x="489" y="85" type="line"></point>
      <point x="406" y="90" type="line"></point>
      <point x="406" y="180" type="line"></point>
      <point x="496" y="180" type="line"></point>
      <point x="496" y="275" type="line"></point>
      <point x="407" y="275" type="line"></point>
      <point x="407" y="462" type="line"></point>
    </contour>
  </outline>
</glyph>
<glyph name="five" format="1">
  <advance width="491"></advance>
  <unicode hex="0035"></unicode>
  <outline>
    <contour>
      <point x="446" y="549" type="line"></point>
      <point x="446" y="708" type="line"></point>
      <point x="351" y="715" type="line"></point>
      <point x="351" y="672" type="line" smooth="yes"></point>
      <point x="351" y="656"></point>
      <point x="346" y="644"></point>
      <point x="328" y="644" type="curve" smooth="yes"></point>
      <point x="129" y="644" type="line"></point>
      <point x="86" y="308" type="line"></point>
      <point x="185" y="308"></point>
      <point x="325" y="295"></point>
      <point x="325" y="186" type="curve" smooth="yes"></point>
      <point x="325" y="130"></point>
      <point x="299" y="88"></point>
      <point x="223" y="88" type="curve" smooth="yes"></point>
      <point x="164" y="88"></point>
      <point x="111" y="110"></point>
      <point x="73" y="131" type="curve"></point>
      <point x="33" y="39" type="line"></point>
      <point x="71" y="15"></point>
      <point x="148" y="-11"></point>
      <point x="228" y="-11" type="curve" smooth="yes"></point>
      <point x="393" y="-11"></point>
      <point x="450" y="94"></point>
      <point x="450" y="188" type="curve" smooth="yes"></point>
      <point x="450" y="329"></point>
      <point x="333" y="386"></point>
      <point x="197" y="396" type="curve"></point>
      <point x="217" y="549" type="line"></point>
    </contour>
  </outline>
</glyph>
<glyph name="six" format="1">
  <advance width="529"></advance>
  <unicode hex="0036"></unicode>
  <outline>
    <contour>
      <point x="386" y="671" type="line"></point>
      <point x="116" y="641"></point>
      <point x="45" y="460"></point>
      <point x="45" y="276" type="curve" smooth="yes"></point>
      <point x="45" y="113"></point>
      <point x="104" y="-11"></point>
      <point x="262" y="-11" type="curve" smooth="yes"></point>
      <point x="408" y="-11"></point>
      <point x="480" y="88"></point>
      <point x="480" y="216" type="curve" smooth="yes"></point>
      <point x="480" y="335"></point>
      <point x="417" y="410"></point>
      <point x="306" y="410" type="curve" smooth="yes"></point>
      <point x="262" y="410"></point>
      <point x="207" y="393"></point>
      <point x="170" y="369" type="curve"></point>
      <point x="185" y="480"></point>
      <point x="251" y="561"></point>
      <point x="409" y="581" type="curve"></point>
    </contour>
    <contour>
      <point x="363" y="211" type="curve" smooth="yes"></point>
      <point x="363" y="128"></point>
      <point x="322" y="81"></point>
      <point x="266" y="81" type="curve" smooth="yes"></point>
      <point x="186" y="81"></point>
      <point x="159" y="170"></point>
      <point x="163" y="286" type="curve"></point>
      <point x="186" y="305"></point>
      <point x="238" y="325"></point>
      <point x="274" y="325" type="curve" smooth="yes"></point>
      <point x="331" y="325"></point>
      <point x="363" y="289"></point>
    </contour>
  </outline>
</glyph>
<glyph name="seven" format="1">
  <advance width="478"></advance>
  <unicode hex="0037"></unicode>
  <outline>
    <contour>
      <point x="24" y="644" type="line"></point>
      <point x="24" y="481" type="line"></point>
      <point x="126" y="474" type="line"></point>
      <point x="126" y="514" type="line" smooth="yes"></point>
      <point x="126" y="534"></point>
      <point x="131" y="545"></point>
      <point x="148" y="545" type="curve" smooth="yes"></point>
      <point x="337" y="545" type="line"></point>
      <point x="102" y="0" type="line"></point>
      <point x="227" y="0" type="line"></point>
      <point x="456" y="561" type="line"></point>
      <point x="456" y="644" type="line"></point>
    </contour>
  </outline>
</glyph>
<glyph name="eight" format="1">
  <advance width="516"></advance>
  <unicode hex="0038"></unicode>
  <outline>
    <contour>
      <point x="39" y="159" type="curve" smooth="yes"></point>
      <point x="39" y="81"></point>
      <point x="88" y="-11"></point>
      <point x="255" y="-11" type="curve" smooth="yes"></point>
      <point x="414" y="-11"></point>
      <point x="482" y="76"></point>
      <point x="482" y="173" type="curve" smooth="yes"></point>
      <point x="482" y="246"></point>
      <point x="434" y="304"></point>
      <point x="360" y="347" type="curve"></point>
      <point x="410" y="389"></point>
      <point x="455" y="440"></point>
      <point x="455" y="507" type="curve" smooth="yes"></point>
      <point x="455" y="582"></point>
      <point x="402" y="657"></point>
      <point x="263" y="657" type="curve" smooth="yes"></point>
      <point x="139" y="657"></point>
      <point x="60" y="584"></point>
      <point x="60" y="490" type="curve" smooth="yes"></point>
      <point x="60" y="415"></point>
      <point x="114" y="370"></point>
      <point x="161" y="341" type="curve"></point>
      <point x="111" y="312"></point>
      <point x="39" y="252"></point>
    </contour>
    <contour>
      <point x="354" y="170" type="curve" smooth="yes"></point>
      <point x="354" y="114"></point>
      <point x="317" y="80"></point>
      <point x="255" y="80" type="curve" smooth="yes"></point>
      <point x="188" y="80"></point>
      <point x="156" y="122"></point>
      <point x="156" y="167" type="curve" smooth="yes"></point>
      <point x="156" y="227"></point>
      <point x="196" y="262"></point>
      <point x="243" y="293" type="curve"></point>
      <point x="305" y="261"></point>
      <point x="354" y="229"></point>
    </contour>
    <contour>
      <point x="259" y="572" type="curve" smooth="yes"></point>
      <point x="309" y="572"></point>
      <point x="344" y="545"></point>
      <point x="344" y="501" type="curve" smooth="yes"></point>
      <point x="344" y="456"></point>
      <point x="306" y="413"></point>
      <point x="271" y="389" type="curve"></point>
      <point x="218" y="416"></point>
      <point x="176" y="450"></point>
      <point x="176" y="497" type="curve" smooth="yes"></point>
      <point x="176" y="539"></point>
      <point x="212" y="572"></point>
    </contour>
  </outline>
</glyph>
<glyph name="nine" format="1">
  <advance width="516"></advance>
  <unicode hex="0039"></unicode>
  <outline>
    <contour>
      <point x="128" y="-12" type="line"></point>
      <point x="399" y="12"></point>
      <point x="473" y="185"></point>
      <point x="473" y="370" type="curve" smooth="yes"></point>
      <point x="473" y="532"></point>
      <point x="417" y="657"></point>
      <point x="259" y="657" type="curve" smooth="yes"></point>
      <point x="113" y="657"></point>
      <point x="39" y="557"></point>
      <point x="39" y="430" type="curve" smooth="yes"></point>
      <point x="39" y="311"></point>
      <point x="101" y="236"></point>
      <point x="212" y="236" type="curve" smooth="yes"></point>
      <point x="263" y="236"></point>
      <point x="312" y="249"></point>
      <point x="350" y="274" type="curve"></point>
      <point x="335" y="163"></point>
      <point x="259" y="99"></point>
      <point x="104" y="81" type="curve"></point>
    </contour>
    <contour>
      <point x="156" y="434" type="curve" smooth="yes"></point>
      <point x="156" y="518"></point>
      <point x="196" y="564"></point>
      <point x="255" y="564" type="curve" smooth="yes"></point>
      <point x="333" y="564"></point>
      <point x="359" y="475"></point>
      <point x="356" y="360" type="curve"></point>
      <point x="333" y="341"></point>
      <point x="281" y="323"></point>
      <point x="244" y="323" type="curve" smooth="yes"></point>
      <point x="187" y="323"></point>
      <point x="156" y="365"></point>
    </contour>
  </outline>
</glyph>
<glyph name="semicolon" format="1">
  <advance width="340"></advance>
  <unicode hex="003B"></unicode>
  <outline>
    <contour>
      <point x="106" y="424" type="curve" smooth="yes"></point>
      <point x="106" y="382"></point>
      <point x="131" y="353"></point>
      <point x="181" y="353" type="curve" smooth="yes"></point>
      <point x="226" y="353"></point>
      <point x="252" y="385"></point>
      <point x="252" y="425" type="curve" smooth="yes"></point>
      <point x="252" y="467"></point>
      <point x="225" y="496"></point>
      <point x="177" y="496" type="curve" smooth="yes"></point>
      <point x="133" y="496"></point>
      <point x="106" y="465"></point>
    </contour>
    <contour>
      <point x="240" y="79" type="line"></point>
      <point x="206" y="100"></point>
      <point x="182" y="117"></point>
      <point x="154" y="117" type="curve" smooth="yes"></point>
      <point x="126" y="117"></point>
      <point x="109" y="97"></point>
      <point x="105" y="67" type="curve" smooth="yes"></point>
      <point x="74" y="-136" type="line"></point>
      <point x="137" y="-155" type="line"></point>
    </contour>
  </outline>
</glyph>
<glyph name="less" format="1">
  <advance width="504"></advance>
  <unicode hex="003C"></unicode>
  <outline>
    <contour>
      <point x="411" y="537" type="line"></point>
      <point x="45" y="358" type="line"></point>
      <point x="45" y="280" type="line"></point>
      <point x="411" y="100" type="line"></point>
      <point x="453" y="190" type="line"></point>
      <point x="178" y="322" type="line"></point>
      <point x="451" y="448" type="line"></point>
    </contour>
  </outline>
</glyph>
<glyph name="equal" format="1">
  <advance width="529"></advance>
  <unicode hex="003D"></unicode>
  <outline>
    <contour>
      <point x="465" y="450" type="line"></point>
      <point x="60" y="450" type="line"></point>
      <point x="60" y="354" type="line"></point>
      <point x="465" y="354" type="line"></point>
    </contour>
    <contour>
      <point x="465" y="259" type="line"></point>
      <point x="60" y="259" type="line"></point>
      <point x="60" y="162" type="line"></point>
      <point x="465" y="162" type="line"></point>
    </contour>
  </outline>
</glyph>
<glyph name="greater" format="1">
  <advance width="504"></advance>
  <unicode hex="003E"></unicode>
  <outline>
    <contour>
      <point x="47" y="448" type="line"></point>
      <point x="320" y="322" type="line"></point>
      <point x="45" y="190" type="line"></point>
      <point x="87" y="100" type="line"></point>
      <point x="453" y="280" type="line"></point>
      <point x="453" y="358" type="line"></point>
      <point x="87" y="537" type="line"></point>
    </contour>
  </outline>
</glyph>
<glyph name="question" format="1">
  <advance width="428"></advance>
  <unicode hex="003F"></unicode>
  <outline>
    <contour>
      <point x="262" y="538" type="curve" smooth="yes"></point>
      <point x="262" y="482"></point>
      <point x="228" y="465"></point>
      <point x="192" y="438" type="curve" smooth="yes"></point>
      <point x="134" y="394"></point>
      <point x="108" y="361"></point>
      <point x="112" y="285" type="curve" smooth="yes"></point>
      <point x="117" y="180" type="line"></point>
      <point x="213" y="180" type="line"></point>
      <point x="218" y="290" type="line" smooth="yes"></point>
      <point x="220" y="330"></point>
      <point x="236" y="342"></point>
      <point x="271" y="367" type="curve" smooth="yes"></point>
      <point x="330" y="411"></point>
      <point x="378" y="452"></point>
      <point x="378" y="544" type="curve" smooth="yes"></point>
      <point x="378" y="632"></point>
      <point x="326" y="695"></point>
      <point x="205" y="695" type="curve" smooth="yes"></point>
      <point x="134" y="695"></point>
      <point x="73" y="674"></point>
      <point x="21" y="649" type="curve"></point>
      <point x="21" y="512" type="line"></point>
      <point x="123" y="505" type="line"></point>
      <point x="123" y="558" type="line" smooth="yes"></point>
      <point x="123" y="577"></point>
      <point x="125" y="588"></point>
      <point x="143" y="593" type="curve" smooth="yes"></point>
      <point x="163" y="599"></point>
      <point x="178" y="601"></point>
      <point x="193" y="601" type="curve" smooth="yes"></point>
      <point x="234" y="601"></point>
      <point x="262" y="581"></point>
    </contour>
    <contour>
      <point x="97" y="50" type="curve" smooth="yes"></point>
      <point x="97" y="13"></point>
      <point x="122" y="-17"></point>
      <point x="167" y="-17" type="curve" smooth="yes"></point>
      <point x="209" y="-17"></point>
      <point x="234" y="15"></point>
      <point x="234" y="51" type="curve" smooth="yes"></point>
      <point x="234" y="88"></point>
      <point x="208" y="116"></point>
      <point x="164" y="116" type="curve" smooth="yes"></point>
      <point x="125" y="116"></point>
      <point x="97" y="86"></point>
    </contour>
  </outline>
</glyph>
<glyph name="at" format="1">
  <advance width="907"></advance>
  <unicode hex="0040"></unicode>
  <outline>
    <contour>
      <point x="776" y="284" type="curve" smooth="yes"></point>
      <point x="776" y="126"></point>
      <point x="713" y="75"></point>
      <point x="636" y="70" type="curve"></point>
      <point x="632" y="123" type="line"></point>
      <point x="632" y="416" type="line"></point>
      <point x="573" y="438"></point>
      <point x="511" y="445"></point>
      <point x="482" y="445" type="curve" smooth="yes"></point>
      <point x="342" y="445"></point>
      <point x="265" y="354"></point>
      <point x="265" y="201" type="curve" smooth="yes"></point>
      <point x="265" y="93"></point>
      <point x="302" y="-3"></point>
      <point x="428" y="-3" type="curve" smooth="yes"></point>
      <point x="493" y="-3"></point>
      <point x="526" y="25"></point>
      <point x="546" y="55" type="curve"></point>
      <point x="549" y="54" type="line"></point>
      <point x="557" y="0" type="line"></point>
      <point x="614" y="0" type="line" smooth="yes"></point>
      <point x="758" y="1"></point>
      <point x="863" y="94"></point>
      <point x="863" y="287" type="curve" smooth="yes"></point>
      <point x="863" y="521"></point>
      <point x="707" y="648"></point>
      <point x="484" y="648" type="curve" smooth="yes"></point>
      <point x="236" y="648"></point>
      <point x="45" y="496"></point>
      <point x="45" y="212" type="curve" smooth="yes"></point>
      <point x="45" y="2"></point>
      <point x="159" y="-193"></point>
      <point x="436" y="-193" type="curve" smooth="yes"></point>
      <point x="509" y="-193"></point>
      <point x="571" y="-181"></point>
      <point x="622" y="-159" type="curve"></point>
      <point x="597" y="-86" type="line"></point>
      <point x="546" y="-109"></point>
      <point x="493" y="-117"></point>
      <point x="439" y="-117" type="curve" smooth="yes"></point>
      <point x="244" y="-117"></point>
      <point x="137" y="22"></point>
      <point x="137" y="216" type="curve" smooth="yes"></point>
      <point x="137" y="416"></point>
      <point x="252" y="570"></point>
      <point x="478" y="570" type="curve" smooth="yes"></point>
      <point x="683" y="570"></point>
      <point x="776" y="452"></point>
    </contour>
    <contour>
      <point x="533" y="361" type="curve"></point>
      <point x="533" y="167" type="line" smooth="yes"></point>
      <point x="533" y="121"></point>
      <point x="516" y="71"></point>
      <point x="451" y="71" type="curve" smooth="yes"></point>
      <point x="380" y="71"></point>
      <point x="363" y="138"></point>
      <point x="363" y="204" type="curve" smooth="yes"></point>
      <point x="363" y="287"></point>
      <point x="381" y="371"></point>
      <point x="476" y="372" type="curve" smooth="yes"></point>
      <point x="499" y="372"></point>
      <point x="522" y="366"></point>
    </contour>
  </outline>
</glyph>
<glyph name="B" format="1">
  <advance width="579"></advance>
  <unicode hex="0042"></unicode>
  <outline>
    <contour>
      <point x="17" y="665" type="line"></point>
      <point x="17" y="580" type="line"></point>
      <point x="74" y="577" type="line"></point>
      <point x="74" y="112" type="line" smooth="yes"></point>
      <point x="74" y="92"></point>
      <point x="62" y="86"></point>
      <point x="45" y="84" type="curve" smooth="yes"></point>
      <point x="12" y="81" type="line"></point>
      <point x="12" y="0" type="line"></point>
      <point x="293" y="0" type="line" smooth="yes"></point>
      <point x="459" y="0"></point>
      <point x="549" y="69"></point>
      <point x="549" y="199" type="curve" smooth="yes"></point>
      <point x="549" y="287"></point>
      <point x="498" y="339"></point>
      <point x="423" y="358" type="curve"></point>
      <point x="477" y="386"></point>
      <point x="515" y="432"></point>
      <point x="515" y="498" type="curve" smooth="yes"></point>
      <point x="515" y="631"></point>
      <point x="412" y="665"></point>
      <point x="299" y="665" type="curve" smooth="yes"></point>
    </contour>
    <contour>
      <point x="196" y="303" type="line"></point>
      <point x="295" y="303" type="line" smooth="yes"></point>
      <point x="374" y="303"></point>
      <point x="420" y="267"></point>
      <point x="420" y="200" type="curve" smooth="yes"></point>
      <point x="420" y="139"></point>
      <point x="388" y="94"></point>
      <point x="290" y="94" type="curve" smooth="yes"></point>
      <point x="196" y="94" type="line"></point>
    </contour>
    <contour>
      <point x="196" y="573" type="line"></point>
      <point x="277" y="573" type="line" smooth="yes"></point>
      <point x="342" y="573"></point>
      <point x="391" y="557"></point>
      <point x="391" y="485" type="curve" smooth="yes"></point>
      <point x="391" y="432"></point>
      <point x="356" y="392"></point>
      <point x="270" y="392" type="curve" smooth="yes"></point>
      <point x="196" y="392" type="line"></point>
    </contour>
  </outline>
</glyph>
<glyph name="D" format="1">
  <advance width="630"></advance>
  <unicode hex="0044"></unicode>
  <outline>
    <contour>
      <point x="6" y="0" type="line"></point>
      <point x="290" y="0" type="line" smooth="yes"></point>
      <point x="451" y="0"></point>
      <point x="597" y="94"></point>
      <point x="597" y="356" type="curve" smooth="yes"></point>
      <point x="597" y="564"></point>
      <point x="476" y="665"></point>
      <point x="285" y="665" type="curve" smooth="yes"></point>
      <point x="11" y="665" type="line"></point>
      <point x="11" y="580" type="line"></point>
      <point x="68" y="577" type="line"></point>
      <point x="68" y="112" type="line" smooth="yes"></point>
      <point x="68" y="92"></point>
      <point x="56" y="86"></point>
      <point x="39" y="84" type="curve" smooth="yes"></point>
      <point x="6" y="81" type="line"></point>
    </contour>
    <contour>
      <point x="190" y="568" type="line"></point>
      <point x="279" y="568" type="line" smooth="yes"></point>
      <point x="387" y="568"></point>
      <point x="474" y="518"></point>
      <point x="474" y="338" type="curve" smooth="yes"></point>
      <point x="474" y="178"></point>
      <point x="404" y="96"></point>
      <point x="292" y="96" type="curve" smooth="yes"></point>
      <point x="190" y="96" type="line"></point>
    </contour>
  </outline>
</glyph>
<glyph name="F" format="1">
  <advance width="529"></advance>
  <unicode hex="0046"></unicode>
  <outline>
    <contour>
      <point x="21" y="0" type="line"></point>
      <point x="294" y="0" type="line"></point>
      <point x="294" y="85" type="line"></point>
      <point x="205" y="88" type="line"></point>
      <point x="205" y="284" type="line"></point>
      <point x="451" y="284" type="line"></point>
      <point x="451" y="386" type="line"></point>
      <point x="205" y="386" type="line"></point>
      <point x="205" y="563" type="line"></point>
      <point x="378" y="563" type="line" smooth="yes"></point>
      <point x="405" y="563"></point>
      <point x="407" y="551"></point>
      <point x="407" y="532" type="curve" smooth="yes"></point>
      <point x="407" y="492" type="line"></point>
      <point x="509" y="499" type="line"></point>
      <point x="509" y="665" type="line"></point>
      <point x="26" y="665" type="line"></point>
      <point x="26" y="580" type="line"></point>
      <point x="83" y="577" type="line"></point>
      <point x="83" y="112" type="line" smooth="yes"></point>
      <point x="83" y="92"></point>
      <point x="71" y="86"></point>
      <point x="54" y="84" type="curve" smooth="yes"></point>
      <point x="21" y="81" type="line"></point>
    </contour>
  </outline>
</glyph>
<glyph name="H" format="1">
  <advance width="655"></advance>
  <unicode hex="0048"></unicode>
  <outline>
    <contour>
      <point x="467" y="117" type="line" smooth="yes"></point>
      <point x="467" y="92"></point>
      <point x="457" y="86"></point>
      <point x="438" y="84" type="curve" smooth="yes"></point>
      <point x="405" y="81" type="line"></point>
      <point x="405" y="0" type="line"></point>
      <point x="647" y="0" type="line"></point>
      <point x="647" y="85" type="line"></point>
      <point x="590" y="88" type="line"></point>
      <point x="590" y="549" type="line" smooth="yes"></point>
      <point x="590" y="573"></point>
      <point x="602" y="579"></point>
      <point x="619" y="581" type="curve" smooth="yes"></point>
      <point x="652" y="584" type="line"></point>
      <point x="652" y="665" type="line"></point>
      <point x="410" y="665" type="line"></point>
      <point x="410" y="580" type="line"></point>
      <point x="467" y="577" type="line"></point>
      <point x="467" y="393" type="line"></point>
      <point x="184" y="393" type="line"></point>
      <point x="184" y="548" type="line" smooth="yes"></point>
      <point x="184" y="573"></point>
      <point x="195" y="579"></point>
      <point x="214" y="581" type="curve" smooth="yes"></point>
      <point x="247" y="584" type="line"></point>
      <point x="247" y="665" type="line"></point>
      <point x="5" y="665" type="line"></point>
      <point x="5" y="580" type="line"></point>
      <point x="62" y="577" type="line"></point>
      <point x="62" y="112" type="line" smooth="yes"></point>
      <point x="62" y="92"></point>
      <point x="50" y="86"></point>
      <point x="33" y="84" type="curve" smooth="yes"></point>
      <point x="0" y="81" type="line"></point>
      <point x="0" y="0" type="line"></point>
      <point x="242" y="0" type="line"></point>
      <point x="242" y="85" type="line"></point>
      <point x="184" y="88" type="line"></point>
      <point x="184" y="290" type="line"></point>
      <point x="467" y="290" type="line"></point>
    </contour>
  </outline>
</glyph>
<glyph name="I" format="1">
  <advance width="365"></advance>
  <unicode hex="0049"></unicode>
  <outline>
    <contour>
      <point x="119" y="117" type="line" smooth="yes"></point>
      <point x="119" y="92"></point>
      <point x="109" y="86"></point>
      <point x="90" y="84" type="curve" smooth="yes"></point>
      <point x="57" y="81" type="line"></point>
      <point x="57" y="0" type="line"></point>
      <point x="299" y="0" type="line"></point>
      <point x="299" y="85" type="line"></point>
      <point x="242" y="88" type="line"></point>
      <point x="242" y="549" type="line" smooth="yes"></point>
      <point x="242" y="573"></point>
      <point x="254" y="579"></point>
      <point x="271" y="581" type="curve" smooth="yes"></point>
      <point x="304" y="584" type="line"></point>
      <point x="304" y="665" type="line"></point>
      <point x="62" y="665" type="line"></point>
      <point x="62" y="580" type="line"></point>
      <point x="119" y="577" type="line"></point>
    </contour>
  </outline>
</glyph>
<glyph name="J" format="1">
  <advance width="516"></advance>
  <unicode hex="004A"></unicode>
  <outline>
    <contour>
      <point x="236" y="-13" type="curve" smooth="yes"></point>
      <point x="355" y="-13"></point>
      <point x="415" y="43"></point>
      <point x="425" y="134" type="curve" smooth="yes"></point>
      <point x="429" y="168"></point>
      <point x="429" y="208"></point>
      <point x="429" y="239" type="curve" smooth="yes"></point>
      <point x="429" y="550" type="line" smooth="yes"></point>
      <point x="429" y="570"></point>
      <point x="438" y="579"></point>
      <point x="458" y="581" type="curve" smooth="yes"></point>
      <point x="491" y="584" type="line"></point>
      <point x="491" y="665" type="line"></point>
      <point x="229" y="665" type="line"></point>
      <point x="229" y="580" type="line"></point>
      <point x="307" y="576" type="line"></point>
      <point x="307" y="181" type="line" smooth="yes"></point>
      <point x="307" y="118"></point>
      <point x="289" y="90"></point>
      <point x="235" y="90" type="curve" smooth="yes"></point>
      <point x="214" y="90"></point>
      <point x="199" y="92"></point>
      <point x="183" y="98" type="curve" smooth="yes"></point>
      <point x="165" y="105"></point>
      <point x="162" y="113"></point>
      <point x="162" y="132" type="curve" smooth="yes"></point>
      <point x="162" y="211" type="line"></point>
      <point x="60" y="204" type="line"></point>
      <point x="60" y="29" type="line"></point>
      <point x="111" y="0"></point>
      <point x="172" y="-13"></point>
    </contour>
  </outline>
</glyph>
<glyph name="L" format="1">
  <advance width="554"></advance>
  <unicode hex="004C"></unicode>
  <outline>
    <contour>
      <point x="496" y="0" type="line"></point>
      <point x="496" y="198" type="line"></point>
      <point x="394" y="205" type="line"></point>
      <point x="394" y="135" type="line" smooth="yes"></point>
      <point x="394" y="116"></point>
      <point x="392" y="103"></point>
      <point x="371" y="103" type="curve" smooth="yes"></point>
      <point x="205" y="103" type="line"></point>
      <point x="205" y="549" type="line" smooth="yes"></point>
      <point x="205" y="573"></point>
      <point x="217" y="579"></point>
      <point x="234" y="581" type="curve" smooth="yes"></point>
      <point x="267" y="584" type="line"></point>
      <point x="267" y="665" type="line"></point>
      <point x="26" y="665" type="line"></point>
      <point x="26" y="580" type="line"></point>
      <point x="83" y="577" type="line"></point>
      <point x="83" y="112" type="line" smooth="yes"></point>
      <point x="83" y="92"></point>
      <point x="71" y="86"></point>
      <point x="54" y="84" type="curve" smooth="yes"></point>
      <point x="21" y="81" type="line"></point>
      <point x="21" y="0" type="line"></point>
    </contour>
  </outline>
</glyph>
<glyph name="M" format="1">
  <advance width="768"></advance>
  <unicode hex="004D"></unicode>
  <outline>
    <contour>
      <point x="217" y="665" type="line"></point>
      <point x="16" y="665" type="line"></point>
      <point x="16" y="580" type="line"></point>
      <point x="77" y="576" type="line"></point>
      <point x="50" y="111" type="line" smooth="yes"></point>
      <point x="49" y="95"></point>
      <point x="39" y="85"></point>
      <point x="25" y="84" type="curve" smooth="yes"></point>
      <point x="-10" y="81" type="line"></point>
      <point x="-10" y="0" type="line"></point>
      <point x="225" y="0" type="line"></point>
      <point x="225" y="85" type="line"></point>
      <point x="160" y="88" type="line"></point>
      <point x="180" y="459" type="line"></point>
      <point x="182" y="459" type="line"></point>
      <point x="334" y="64" type="line"></point>
      <point x="429" y="64" type="line"></point>
      <point x="583" y="463" type="line"></point>
      <point x="585" y="463" type="line"></point>
      <point x="604" y="110" type="line" smooth="yes"></point>
      <point x="605" y="91"></point>
      <point x="594" y="85"></point>
      <point x="578" y="84" type="curve" smooth="yes"></point>
      <point x="542" y="81" type="line"></point>
      <point x="542" y="0" type="line"></point>
      <point x="783" y="0" type="line"></point>
      <point x="783" y="85" type="line"></point>
      <point x="721" y="88" type="line"></point>
      <point x="696" y="546" type="line" smooth="yes"></point>
      <point x="695" y="573"></point>
      <point x="707" y="579"></point>
      <point x="725" y="581" type="curve" smooth="yes"></point>
      <point x="758" y="584" type="line"></point>
      <point x="758" y="665" type="line"></point>
      <point x="560" y="665" type="line"></point>
      <point x="389" y="213" type="line"></point>
      <point x="387" y="213" type="line"></point>
    </contour>
  </outline>
</glyph>
<glyph name="P" format="1">
  <advance width="579"></advance>
  <unicode hex="0050"></unicode>
  <outline>
    <contour>
      <point x="15" y="0" type="line"></point>
      <point x="295" y="0" type="line"></point>
      <point x="295" y="85" type="line"></point>
      <point x="199" y="88" type="line"></point>
      <point x="199" y="233" type="line"></point>
      <point x="284" y="233" type="line" smooth="yes"></point>
      <point x="435" y="233"></point>
      <point x="543" y="309"></point>
      <point x="543" y="461" type="curve" smooth="yes"></point>
      <point x="543" y="595"></point>
      <point x="453" y="665"></point>
      <point x="306" y="665" type="curve" smooth="yes"></point>
      <point x="20" y="665" type="line"></point>
      <point x="20" y="580" type="line"></point>
      <point x="77" y="577" type="line"></point>
      <point x="77" y="112" type="line" smooth="yes"></point>
      <point x="77" y="92"></point>
      <point x="65" y="86"></point>
      <point x="48" y="84" type="curve" smooth="yes"></point>
      <point x="15" y="81" type="line"></point>
    </contour>
    <contour>
      <point x="199" y="330" type="line"></point>
      <point x="199" y="568" type="line"></point>
      <point x="260" y="568" type="line" smooth="yes"></point>
      <point x="358" y="568"></point>
      <point x="417" y="552"></point>
      <point x="417" y="449" type="curve" smooth="yes"></point>
      <point x="417" y="360"></point>
      <point x="358" y="330"></point>
      <point x="271" y="330" type="curve" smooth="yes"></point>
    </contour>
  </outline>
</glyph>
<glyph name="Q" format="1">
  <advance width="667"></advance>
  <unicode hex="0051"></unicode>
  <outline>
    <contour>
      <point x="617" y="331" type="curve" smooth="yes"></point>
      <point x="617" y="585"></point>
      <point x="483" y="677"></point>
      <point x="334" y="677" type="curve" smooth="yes"></point>
      <point x="194" y="677"></point>
      <point x="33" y="587"></point>
      <point x="33" y="331" type="curve" smooth="yes"></point>
      <point x="33" y="127"></point>
      <point x="117" y="19"></point>
      <point x="271" y="-1" type="curve"></point>
      <point x="257" y="-73" type="line"></point>
      <point x="285" y="-67"></point>
      <point x="311" y="-66"></point>
      <point x="334" y="-68" type="curve" smooth="yes"></point>
      <point x="448" y="-76"></point>
      <point x="542" y="-180"></point>
      <point x="688" y="-165" type="curve"></point>
      <point x="700" y="-69" type="line"></point>
      <point x="565" y="-85"></point>
      <point x="537" y="-1"></point>
      <point x="405" y="6" type="curve"></point>
      <point x="405" y="9" type="line"></point>
      <point x="543" y="45"></point>
      <point x="617" y="159"></point>
    </contour>
    <contour>
      <point x="158" y="336" type="curve" smooth="yes"></point>
      <point x="158" y="455"></point>
      <point x="200" y="574"></point>
      <point x="328" y="574" type="curve" smooth="yes"></point>
      <point x="466" y="574"></point>
      <point x="493" y="430"></point>
      <point x="493" y="328" type="curve" smooth="yes"></point>
      <point x="493" y="208"></point>
      <point x="457" y="88"></point>
      <point x="330" y="88" type="curve" smooth="yes"></point>
      <point x="186" y="88"></point>
      <point x="158" y="222"></point>
    </contour>
  </outline>
</glyph>
<glyph name="S" format="1">
  <advance width="541"></advance>
  <unicode hex="0053"></unicode>
  <outline>
    <contour>
      <point x="246" y="90" type="curve" smooth="yes"></point>
      <point x="219" y="90"></point>
      <point x="193" y="93"></point>
      <point x="174" y="99" type="curve" smooth="yes"></point>
      <point x="156" y="105"></point>
      <point x="153" y="113"></point>
      <point x="153" y="132" type="curve" smooth="yes"></point>
      <point x="153" y="193" type="line"></point>
      <point x="51" y="186" type="line"></point>
      <point x="51" y="28" type="line"></point>
      <point x="111" y="0"></point>
      <point x="173" y="-13"></point>
      <point x="253" y="-13" type="curve" smooth="yes"></point>
      <point x="391" y="-13"></point>
      <point x="495" y="59"></point>
      <point x="495" y="191" type="curve" smooth="yes"></point>
      <point x="495" y="320"></point>
      <point x="399" y="361"></point>
      <point x="308" y="390" type="curve" smooth="yes"></point>
      <point x="233" y="413"></point>
      <point x="175" y="430"></point>
      <point x="175" y="492" type="curve" smooth="yes"></point>
      <point x="175" y="554"></point>
      <point x="221" y="578"></point>
      <point x="280" y="578" type="curve" smooth="yes"></point>
      <point x="300" y="578"></point>
      <point x="326" y="576"></point>
      <point x="345" y="570" type="curve" smooth="yes"></point>
      <point x="363" y="564"></point>
      <point x="366" y="556"></point>
      <point x="366" y="537" type="curve" smooth="yes"></point>
      <point x="366" y="479" type="line"></point>
      <point x="468" y="486" type="line"></point>
      <point x="468" y="636" type="line"></point>
      <point x="408" y="664"></point>
      <point x="346" y="677"></point>
      <point x="280" y="677" type="curve" smooth="yes"></point>
      <point x="142" y="677"></point>
      <point x="48" y="603"></point>
      <point x="48" y="481" type="curve" smooth="yes"></point>
      <point x="48" y="353"></point>
      <point x="140" y="313"></point>
      <point x="239" y="286" type="curve" smooth="yes"></point>
      <point x="309" y="267"></point>
      <point x="366" y="249"></point>
      <point x="366" y="186" type="curve" smooth="yes"></point>
      <point x="366" y="111"></point>
      <point x="312" y="90"></point>
    </contour>
  </outline>
</glyph>
<glyph name="T" format="1">
  <advance width="504"></advance>
  <unicode hex="0054"></unicode>
  <outline>
    <contour>
      <point x="192" y="112" type="line" smooth="yes"></point>
      <point x="192" y="92"></point>
      <point x="182" y="86"></point>
      <point x="163" y="84" type="curve" smooth="yes"></point>
      <point x="110" y="81" type="line"></point>
      <point x="110" y="0" type="line"></point>
      <point x="392" y="0" type="line"></point>
      <point x="392" y="85" type="line"></point>
      <point x="313" y="88" type="line"></point>
      <point x="313" y="566" type="line"></point>
      <point x="381" y="566" type="line" smooth="yes"></point>
      <point x="408" y="566"></point>
      <point x="410" y="554"></point>
      <point x="410" y="535" type="curve" smooth="yes"></point>
      <point x="410" y="488" type="line"></point>
      <point x="512" y="495" type="line"></point>
      <point x="512" y="665" type="line"></point>
      <point x="-10" y="665" type="line"></point>
      <point x="-10" y="495" type="line"></point>
      <point x="91" y="488" type="line"></point>
      <point x="91" y="535" type="line" smooth="yes"></point>
      <point x="91" y="552"></point>
      <point x="93" y="566"></point>
      <point x="114" y="566" type="curve" smooth="yes"></point>
      <point x="192" y="566" type="line"></point>
    </contour>
  </outline>
</glyph>
<glyph name="V" format="1">
  <advance width="567"></advance>
  <unicode hex="0056"></unicode>
  <outline>
    <contour>
      <point x="155" y="546" type="line" smooth="yes"></point>
      <point x="148" y="570"></point>
      <point x="162" y="579"></point>
      <point x="184" y="581" type="curve" smooth="yes"></point>
      <point x="217" y="584" type="line"></point>
      <point x="217" y="665" type="line"></point>
      <point x="-40" y="665" type="line"></point>
      <point x="-40" y="580" type="line"></point>
      <point x="16" y="577" type="line"></point>
      <point x="220" y="0" type="line"></point>
      <point x="350" y="0" type="line"></point>
      <point x="539" y="551" type="line" smooth="yes"></point>
      <point x="546" y="571"></point>
      <point x="552" y="579"></point>
      <point x="570" y="581" type="curve" smooth="yes"></point>
      <point x="603" y="584" type="line"></point>
      <point x="603" y="665" type="line"></point>
      <point x="373" y="665" type="line"></point>
      <point x="373" y="580" type="line"></point>
      <point x="434" y="576" type="line"></point>
      <point x="294" y="143" type="line"></point>
      <point x="289" y="143" type="line"></point>
    </contour>
  </outline>
</glyph>
<glyph name="X" format="1">
  <advance width="592"></advance>
  <unicode hex="0058"></unicode>
  <outline>
    <contour>
      <point x="508" y="549" type="line"></point>
      <point x="521" y="569"></point>
      <point x="531" y="579"></point>
      <point x="546" y="581" type="curve" smooth="yes"></point>
      <point x="577" y="584" type="line"></point>
      <point x="577" y="665" type="line"></point>
      <point x="348" y="665" type="line"></point>
      <point x="348" y="580" type="line"></point>
      <point x="398" y="577" type="line"></point>
      <point x="301" y="434" type="line"></point>
      <point x="234" y="539" type="line" smooth="yes"></point>
      <point x="221" y="559"></point>
      <point x="228" y="577"></point>
      <point x="256" y="580" type="curve" smooth="yes"></point>
      <point x="281" y="583" type="line"></point>
      <point x="281" y="665" type="line"></point>
      <point x="16" y="665" type="line"></point>
      <point x="16" y="577" type="line"></point>
      <point x="71" y="572" type="line"></point>
      <point x="223" y="348" type="line"></point>
      <point x="61" y="116" type="line" smooth="yes"></point>
      <point x="48" y="96"></point>
      <point x="38" y="86"></point>
      <point x="23" y="84" type="curve" smooth="yes"></point>
      <point x="-7" y="81" type="line"></point>
      <point x="-7" y="0" type="line"></point>
      <point x="222" y="0" type="line"></point>
      <point x="222" y="85" type="line"></point>
      <point x="174" y="88" type="line"></point>
      <point x="289" y="262" type="line"></point>
      <point x="379" y="123" type="line" smooth="yes"></point>
      <point x="391" y="105"></point>
      <point x="381" y="88"></point>
      <point x="355" y="85" type="curve" smooth="yes"></point>
      <point x="325" y="82" type="line"></point>
      <point x="325" y="0" type="line"></point>
      <point x="603" y="0" type="line"></point>
      <point x="603" y="88" type="line"></point>
      <point x="540" y="92" type="line"></point>
      <point x="365" y="356" type="line"></point>
    </contour>
  </outline>
</glyph>
<glyph name="Y" format="1">
  <advance width="504"></advance>
  <unicode hex="0059"></unicode>
  <outline>
    <contour>
      <point x="191" y="112" type="line" smooth="yes"></point>
      <point x="191" y="92"></point>
      <point x="181" y="85"></point>
      <point x="162" y="84" type="curve" smooth="yes"></point>
      <point x="109" y="81" type="line"></point>
      <point x="109" y="0" type="line"></point>
      <point x="391" y="0" type="line"></point>
      <point x="391" y="85" type="line"></point>
      <point x="313" y="88" type="line"></point>
      <point x="313" y="254" type="line"></point>
      <point x="470" y="551" type="line" smooth="yes"></point>
      <point x="480" y="569"></point>
      <point x="488" y="579"></point>
      <point x="504" y="581" type="curve" smooth="yes"></point>
      <point x="534" y="584" type="line"></point>
      <point x="534" y="665" type="line"></point>
      <point x="319" y="665" type="line"></point>
      <point x="319" y="580" type="line"></point>
      <point x="369" y="576" type="line"></point>
      <point x="260" y="368" type="line"></point>
      <point x="256" y="368" type="line"></point>
      <point x="171" y="542" type="line" smooth="yes"></point>
      <point x="160" y="563"></point>
      <point x="166" y="579"></point>
      <point x="188" y="581" type="curve" smooth="yes"></point>
      <point x="218" y="584" type="line"></point>
      <point x="218" y="665" type="line"></point>
      <point x="-25" y="665" type="line"></point>
      <point x="-25" y="580" type="line"></point>
      <point x="21" y="577" type="line"></point>
      <point x="191" y="254" type="line"></point>
    </contour>
  </outline>
</glyph>
<glyph name="Z" format="1">
  <advance width="541"></advance>
  <unicode hex="005A"></unicode>
  <outline>
    <contour>
      <point x="477" y="584" type="line"></point>
      <point x="477" y="665" type="line"></point>
      <point x="40" y="665" type="line"></point>
      <point x="40" y="506" type="line"></point>
      <point x="142" y="499" type="line"></point>
      <point x="142" y="539" type="line" smooth="yes"></point>
      <point x="142" y="556"></point>
      <point x="148" y="570"></point>
      <point x="169" y="570" type="curve" smooth="yes"></point>
      <point x="335" y="570" type="line"></point>
      <point x="33" y="83" type="line"></point>
      <point x="33" y="0" type="line"></point>
      <point x="493" y="0" type="line"></point>
      <point x="493" y="190" type="line"></point>
      <point x="391" y="197" type="line"></point>
      <point x="391" y="127" type="line" smooth="yes"></point>
      <point x="391" y="108"></point>
      <point x="387" y="95"></point>
      <point x="366" y="95" type="curve" smooth="yes"></point>
      <point x="172" y="95" type="line"></point>
    </contour>
  </outline>
</glyph>
<glyph name="bracketleft" format="1">
  <advance width="352"></advance>
  <unicode hex="005B"></unicode>
  <outline>
    <contour>
      <point x="89" y="-166" type="line"></point>
      <point x="299" y="-166" type="line"></point>
      <point x="299" y="-85" type="line"></point>
      <point x="199" y="-85" type="line"></point>
      <point x="199" y="633" type="line"></point>
      <point x="299" y="633" type="line"></point>
      <point x="299" y="714" type="line"></point>
      <point x="89" y="714" type="line"></point>
    </contour>
  </outline>
</glyph>
<glyph name="backslash" format="1">
  <advance width="441"></advance>
  <unicode hex="005C"></unicode>
  <outline>
    <contour>
      <point x="9" y="718" type="line"></point>
      <point x="316" y="-109" type="line"></point>
      <point x="419" y="-72" type="line"></point>
      <point x="112" y="756" type="line"></point>
    </contour>
  </outline>
</glyph>
<glyph name="bracketright" format="1">
  <advance width="415"></advance>
  <unicode hex="005D"></unicode>
  <outline>
    <contour>
      <point x="332" y="714" type="line"></point>
      <point x="122" y="714" type="line"></point>
      <point x="122" y="633" type="line"></point>
      <point x="222" y="633" type="line"></point>
      <point x="222" y="-85" type="line"></point>
      <point x="122" y="-85" type="line"></point>
      <point x="122" y="-166" type="line"></point>
      <point x="332" y="-166" type="line"></point>
    </contour>
  </outline>
</glyph>
<glyph name="asciicircum" format="1">
  <advance width="516"></advance>
  <unicode hex="005E"></unicode>
  <outline>
    <contour>
      <point x="490" y="301" type="line"></point>
      <point x="304" y="674" type="line"></point>
      <point x="217" y="674" type="line"></point>
      <point x="30" y="302" type="line"></point>
      <point x="128" y="285" type="line"></point>
      <point x="259" y="552" type="line"></point>
      <point x="389" y="285" type="line"></point>
    </contour>
  </outline>
</glyph>
<glyph name="underscore" format="1">
  <advance width="592"></advance>
  <unicode hex="005F"></unicode>
  <outline>
    <contour>
      <point x="122" y="-147" type="line"></point>
      <point x="622" y="-147" type="line"></point>
      <point x="622" y="-74" type="line"></point>
      <point x="122" y="-74" type="line"></point>
    </contour>
  </outline>
</glyph>
<glyph name="grave" format="1">
  <advance width="390"></advance>
  <unicode hex="0060"></unicode>
  <outline>
    <contour>
      <point x="210" y="786" type="line"></point>
      <point x="163" y="764" type="line" smooth="yes"></point>
      <point x="122" y="745"></point>
      <point x="130" y="713"></point>
      <point x="159" y="685" type="curve" smooth="yes"></point>
      <point x="287" y="561" type="line"></point>
      <point x="326" y="594" type="line"></point>
    </contour>
  </outline>
</glyph>
<glyph name="a" format="1">
  <advance width="567"></advance>
  <unicode hex="0061"></unicode>
  <outline>
    <contour>
      <point x="478" y="483" type="line"></point>
      <point x="406" y="510"></point>
      <point x="333" y="518"></point>
      <point x="300" y="518" type="curve" smooth="yes"></point>
      <point x="120" y="518"></point>
      <point x="36" y="406"></point>
      <point x="36" y="230" type="curve" smooth="yes"></point>
      <point x="36" y="87"></point>
      <point x="95" y="-13"></point>
      <point x="236" y="-13" type="curve" smooth="yes"></point>
      <point x="291" y="-13"></point>
      <point x="342" y="14"></point>
      <point x="373" y="59" type="curve"></point>
      <point x="376" y="58" type="line"></point>
      <point x="376" y="0" type="line"></point>
      <point x="535" y="0" type="line"></point>
      <point x="535" y="80" type="line"></point>
      <point x="503" y="82" type="line" smooth="yes"></point>
      <point x="484" y="83"></point>
      <point x="478" y="89"></point>
      <point x="478" y="111" type="curve" smooth="yes"></point>
    </contour>
    <contour>
      <point x="362" y="159" type="line" smooth="yes"></point>
      <point x="362" y="116"></point>
      <point x="324" y="72"></point>
      <point x="262" y="72" type="curve" smooth="yes"></point>
      <point x="178" y="72"></point>
      <point x="158" y="151"></point>
      <point x="158" y="234" type="curve" smooth="yes"></point>
      <point x="158" y="342"></point>
      <point x="190" y="431"></point>
      <point x="285" y="431" type="curve" smooth="yes"></point>
      <point x="316" y="431"></point>
      <point x="347" y="425"></point>
      <point x="362" y="418" type="curve"></point>
    </contour>
  </outline>
</glyph>
<glyph name="b" format="1">
  <advance width="554"></advance>
  <unicode hex="0062"></unicode>
  <outline>
    <contour>
      <point x="75" y="30" type="line"></point>
      <point x="117" y="6"></point>
      <point x="204" y="-13"></point>
      <point x="274" y="-13" type="curve" smooth="yes"></point>
      <point x="435" y="-13"></point>
      <point x="516" y="81"></point>
      <point x="516" y="276" type="curve" smooth="yes"></point>
      <point x="516" y="432"></point>
      <point x="436" y="518"></point>
      <point x="312" y="518" type="curve" smooth="yes"></point>
      <point x="265" y="518"></point>
      <point x="219" y="502"></point>
      <point x="191" y="476" type="curve"></point>
      <point x="191" y="713" type="line"></point>
      <point x="15" y="713" type="line"></point>
      <point x="15" y="630" type="line"></point>
      <point x="50" y="628" type="line" smooth="yes"></point>
      <point x="67" y="627"></point>
      <point x="75" y="621"></point>
      <point x="75" y="604" type="curve" smooth="yes"></point>
    </contour>
    <contour>
      <point x="191" y="354" type="line" smooth="yes"></point>
      <point x="191" y="399"></point>
      <point x="235" y="429"></point>
      <point x="281" y="429" type="curve" smooth="yes"></point>
      <point x="374" y="429"></point>
      <point x="393" y="338"></point>
      <point x="393" y="260" type="curve" smooth="yes"></point>
      <point x="393" y="123"></point>
      <point x="349" y="75"></point>
      <point x="279" y="75" type="curve" smooth="yes"></point>
      <point x="246" y="75"></point>
      <point x="210" y="85"></point>
      <point x="191" y="95" type="curve"></point>
    </contour>
  </outline>
</glyph>
<glyph name="c" format="1">
  <advance width="478"></advance>
  <unicode hex="0063"></unicode>
  <outline>
    <contour>
      <point x="295" y="78" type="curve" smooth="yes"></point>
      <point x="206" y="78"></point>
      <point x="166" y="148"></point>
      <point x="166" y="257" type="curve" smooth="yes"></point>
      <point x="166" y="368"></point>
      <point x="207" y="428"></point>
      <point x="287" y="428" type="curve" smooth="yes"></point>
      <point x="302" y="428"></point>
      <point x="314" y="426"></point>
      <point x="326" y="422" type="curve" smooth="yes"></point>
      <point x="344" y="416"></point>
      <point x="347" y="407"></point>
      <point x="347" y="388" type="curve" smooth="yes"></point>
      <point x="347" y="340" type="line"></point>
      <point x="439" y="347" type="line"></point>
      <point x="439" y="477" type="line"></point>
      <point x="391" y="503"></point>
      <point x="343" y="518"></point>
      <point x="283" y="518" type="curve" smooth="yes"></point>
      <point x="170" y="518"></point>
      <point x="45" y="448"></point>
      <point x="45" y="245" type="curve" smooth="yes"></point>
      <point x="45" y="79"></point>
      <point x="132" y="-14"></point>
      <point x="279" y="-14" type="curve" smooth="yes"></point>
      <point x="353" y="-14"></point>
      <point x="414" y="12"></point>
      <point x="453" y="44" type="curve"></point>
      <point x="410" y="121" type="line"></point>
      <point x="369" y="91"></point>
      <point x="334" y="78"></point>
    </contour>
  </outline>
</glyph>
<glyph name="d" format="1">
  <advance width="567"></advance>
  <unicode hex="0064"></unicode>
  <outline>
    <contour>
      <point x="280" y="518" type="curve" smooth="yes"></point>
      <point x="124" y="518"></point>
      <point x="36" y="403"></point>
      <point x="36" y="232" type="curve" smooth="yes"></point>
      <point x="36" y="107"></point>
      <point x="82" y="-13"></point>
      <point x="238" y="-13" type="curve" smooth="yes"></point>
      <point x="293" y="-13"></point>
      <point x="343" y="10"></point>
      <point x="374" y="60" type="curve"></point>
      <point x="377" y="59" type="line"></point>
      <point x="377" y="0" type="line"></point>
      <point x="539" y="0" type="line"></point>
      <point x="539" y="80" type="line"></point>
      <point x="504" y="82" type="line"></point>
      <point x="487" y="82"></point>
      <point x="480" y="88"></point>
      <point x="479" y="105" type="curve"></point>
      <point x="479" y="713" type="line"></point>
      <point x="293" y="713" type="line"></point>
      <point x="293" y="634" type="line"></point>
      <point x="336" y="631" type="line" smooth="yes"></point>
      <point x="353" y="630"></point>
      <point x="362" y="624"></point>
      <point x="362" y="607" type="curve" smooth="yes"></point>
      <point x="362" y="506" type="line"></point>
      <point x="339" y="513"></point>
      <point x="315" y="518"></point>
    </contour>
    <contour>
      <point x="362" y="156" type="line" smooth="yes"></point>
      <point x="362" y="112"></point>
      <point x="323" y="75"></point>
      <point x="267" y="75" type="curve" smooth="yes"></point>
      <point x="181" y="75"></point>
      <point x="159" y="152"></point>
      <point x="159" y="243" type="curve" smooth="yes"></point>
      <point x="159" y="341"></point>
      <point x="191" y="431"></point>
      <point x="286" y="431" type="curve" smooth="yes"></point>
      <point x="317" y="431"></point>
      <point x="344" y="423"></point>
      <point x="362" y="415" type="curve"></point>
    </contour>
  </outline>
</glyph>
<glyph name="e" format="1">
  <advance width="491"></advance>
  <unicode hex="0065"></unicode>
  <outline>
    <contour>
      <point x="287" y="518" type="curve" smooth="yes"></point>
      <point x="123" y="518"></point>
      <point x="40" y="388"></point>
      <point x="40" y="240" type="curve" smooth="yes"></point>
      <point x="40" y="91"></point>
      <point x="106" y="-13"></point>
      <point x="276" y="-13" type="curve" smooth="yes"></point>
      <point x="370" y="-13"></point>
      <point x="436" y="29"></point>
      <point x="452" y="43" type="curve"></point>
      <point x="414" y="124" type="line"></point>
      <point x="390" y="107"></point>
      <point x="347" y="80"></point>
      <point x="288" y="80" type="curve" smooth="yes"></point>
      <point x="203" y="80"></point>
      <point x="169" y="133"></point>
      <point x="165" y="198" type="curve"></point>
      <point x="283" y="199"></point>
      <point x="450" y="225"></point>
      <point x="450" y="379" type="curve" smooth="yes"></point>
      <point x="450" y="468"></point>
      <point x="385" y="518"></point>
    </contour>
    <contour>
      <point x="340" y="377" type="curve" smooth="yes"></point>
      <point x="340" y="300"></point>
      <point x="235" y="283"></point>
      <point x="161" y="282" type="curve"></point>
      <point x="164" y="356"></point>
      <point x="200" y="433"></point>
      <point x="280" y="433" type="curve" smooth="yes"></point>
      <point x="316" y="433"></point>
      <point x="340" y="414"></point>
    </contour>
  </outline>
</glyph>
<glyph name="f" format="1">
  <advance width="390"></advance>
  <unicode hex="0066"></unicode>
  <outline>
    <contour>
      <point x="113" y="112" type="line" smooth="yes"></point>
      <point x="113" y="87"></point>
      <point x="103" y="81"></point>
      <point x="84" y="79" type="curve" smooth="yes"></point>
      <point x="51" y="76" type="line"></point>
      <point x="51" y="0" type="line"></point>
      <point x="316" y="0" type="line"></point>
      <point x="316" y="80" type="line"></point>
      <point x="232" y="84" type="line"></point>
      <point x="232" y="419" type="line"></point>
      <point x="380" y="419" type="line"></point>
      <point x="380" y="503" type="line"></point>
      <point x="232" y="503" type="line"></point>
      <point x="232" y="550" type="line" smooth="yes"></point>
      <point x="232" y="605"></point>
      <point x="251" y="633"></point>
      <point x="301" y="633" type="curve" smooth="yes"></point>
      <point x="329" y="633"></point>
      <point x="367" y="623"></point>
      <point x="396" y="608" type="curve"></point>
      <point x="425" y="688" type="line"></point>
      <point x="391" y="707"></point>
      <point x="330" y="723"></point>
      <point x="286" y="723" type="curve" smooth="yes"></point>
      <point x="131" y="723"></point>
      <point x="113" y="621"></point>
      <point x="113" y="541" type="curve" smooth="yes"></point>
      <point x="113" y="503" type="line"></point>
      <point x="27" y="503" type="line"></point>
      <point x="27" y="419" type="line"></point>
      <point x="113" y="419" type="line"></point>
    </contour>
  </outline>
</glyph>
<glyph name="g" format="1">
  <advance width="554"></advance>
  <unicode hex="0067"></unicode>
  <outline>
    <contour>
      <point x="254" y="-214" type="curve" smooth="yes"></point>
      <point x="404" y="-214"></point>
      <point x="473" y="-146"></point>
      <point x="485" y="1" type="curve" smooth="yes"></point>
      <point x="488" y="37"></point>
      <point x="487" y="75"></point>
      <point x="487" y="110" type="curve" smooth="yes"></point>
      <point x="487" y="481" type="line"></point>
      <point x="428" y="506"></point>
      <point x="350" y="518"></point>
      <point x="302" y="518" type="curve" smooth="yes"></point>
      <point x="151" y="518"></point>
      <point x="42" y="433"></point>
      <point x="42" y="252" type="curve" smooth="yes"></point>
      <point x="42" y="138"></point>
      <point x="92" y="18"></point>
      <point x="238" y="18" type="curve" smooth="yes"></point>
      <point x="287" y="18"></point>
      <point x="337" y="34"></point>
      <point x="371" y="74" type="curve"></point>
      <point x="371" y="19" type="line" smooth="yes"></point>
      <point x="371" y="-65"></point>
      <point x="347" y="-128"></point>
      <point x="255" y="-128" type="curve" smooth="yes"></point>
      <point x="225" y="-128"></point>
      <point x="203" y="-125"></point>
      <point x="184" y="-118" type="curve" smooth="yes"></point>
      <point x="166" y="-111"></point>
      <point x="161" y="-101"></point>
      <point x="161" y="-82" type="curve" smooth="yes"></point>
      <point x="161" y="-34" type="line"></point>
      <point x="66" y="-42" type="line"></point>
      <point x="66" y="-181" type="line"></point>
      <point x="108" y="-202"></point>
      <point x="191" y="-214"></point>
    </contour>
    <contour>
      <point x="371" y="204" type="line" smooth="yes"></point>
      <point x="371" y="143"></point>
      <point x="325" y="106"></point>
      <point x="269" y="106" type="curve" smooth="yes"></point>
      <point x="176" y="106"></point>
      <point x="165" y="196"></point>
      <point x="165" y="264" type="curve" smooth="yes"></point>
      <point x="165" y="365"></point>
      <point x="208" y="431"></point>
      <point x="291" y="431" type="curve" smooth="yes"></point>
      <point x="319" y="431"></point>
      <point x="348" y="427"></point>
      <point x="371" y="419" type="curve"></point>
    </contour>
  </outline>
</glyph>
<glyph name="h" format="1">
  <advance width="567"></advance>
  <unicode hex="0068"></unicode>
  <outline>
    <contour>
      <point x="74" y="112" type="line" smooth="yes"></point>
      <point x="74" y="87"></point>
      <point x="64" y="81"></point>
      <point x="45" y="79" type="curve" smooth="yes"></point>
      <point x="12" y="76" type="line"></point>
      <point x="12" y="0" type="line"></point>
      <point x="250" y="0" type="line"></point>
      <point x="250" y="80" type="line"></point>
      <point x="193" y="83" type="line"></point>
      <point x="193" y="325" type="line" smooth="yes"></point>
      <point x="193" y="377"></point>
      <point x="230" y="426"></point>
      <point x="300" y="426" type="curve" smooth="yes"></point>
      <point x="364" y="426"></point>
      <point x="378" y="379"></point>
      <point x="378" y="318" type="curve" smooth="yes"></point>
      <point x="378" y="112" type="line" smooth="yes"></point>
      <point x="378" y="87"></point>
      <point x="368" y="81"></point>
      <point x="349" y="79" type="curve" smooth="yes"></point>
      <point x="316" y="76" type="line"></point>
      <point x="316" y="0" type="line"></point>
      <point x="554" y="0" type="line"></point>
      <point x="554" y="80" type="line"></point>
      <point x="497" y="83" type="line"></point>
      <point x="497" y="344" type="line" smooth="yes"></point>
      <point x="497" y="462"></point>
      <point x="438" y="518"></point>
      <point x="338" y="518" type="curve" smooth="yes"></point>
      <point x="272" y="518"></point>
      <point x="222" y="487"></point>
      <point x="192" y="444" type="curve"></point>
      <point x="192" y="713" type="line"></point>
      <point x="14" y="713" type="line"></point>
      <point x="14" y="630" type="line"></point>
      <point x="49" y="628" type="line" smooth="yes"></point>
      <point x="68" y="627"></point>
      <point x="74" y="621"></point>
      <point x="74" y="599" type="curve" smooth="yes"></point>
    </contour>
  </outline>
</glyph>
<glyph name="i" format="1">
  <advance width="315"></advance>
  <unicode hex="0069"></unicode>
  <outline>
    <contour>
      <point x="222" y="503" type="line"></point>
      <point x="43" y="503" type="line"></point>
      <point x="43" y="420" type="line"></point>
      <point x="78" y="418" type="line"></point>
      <point x="97" y="418"></point>
      <point x="103" y="411"></point>
      <point x="103" y="389" type="curve" smooth="yes"></point>
      <point x="103" y="111" type="line" smooth="yes"></point>
      <point x="103" y="87"></point>
      <point x="92" y="81"></point>
      <point x="74" y="79" type="curve" smooth="yes"></point>
      <point x="41" y="76" type="line"></point>
      <point x="41" y="0" type="line"></point>
      <point x="279" y="0" type="line"></point>
      <point x="279" y="80" type="line"></point>
      <point x="222" y="83" type="line"></point>
    </contour>
    <contour>
      <point x="75" y="642" type="curve" smooth="yes"></point>
      <point x="75" y="600"></point>
      <point x="105" y="569"></point>
      <point x="151" y="569" type="curve" smooth="yes"></point>
      <point x="196" y="569"></point>
      <point x="228" y="600"></point>
      <point x="228" y="642" type="curve" smooth="yes"></point>
      <point x="228" y="684"></point>
      <point x="196" y="717"></point>
      <point x="152" y="717" type="curve" smooth="yes"></point>
      <point x="105" y="717"></point>
      <point x="75" y="684"></point>
    </contour>
  </outline>
</glyph>
<glyph name="j" format="1">
  <advance width="327"></advance>
  <unicode hex="006A"></unicode>
  <outline>
    <contour>
      <point x="242" y="503" type="line"></point>
      <point x="63" y="503" type="line"></point>
      <point x="63" y="420" type="line"></point>
      <point x="98" y="418" type="line" smooth="yes"></point>
      <point x="117" y="417"></point>
      <point x="123" y="411"></point>
      <point x="123" y="389" type="curve" smooth="yes"></point>
      <point x="123" y="-29" type="line" smooth="yes"></point>
      <point x="123" y="-95"></point>
      <point x="102" y="-117"></point>
      <point x="64" y="-117" type="curve" smooth="yes"></point>
      <point x="38" y="-117"></point>
      <point x="14" y="-109"></point>
      <point x="-9" y="-96" type="curve"></point>
      <point x="-45" y="-179" type="line"></point>
      <point x="-10" y="-201"></point>
      <point x="41" y="-214"></point>
      <point x="82" y="-214" type="curve" smooth="yes"></point>
      <point x="224" y="-214"></point>
      <point x="242" y="-120"></point>
      <point x="242" y="-24" type="curve" smooth="yes"></point>
    </contour>
    <contour>
      <point x="95" y="642" type="curve" smooth="yes"></point>
      <point x="95" y="600"></point>
      <point x="125" y="569"></point>
      <point x="171" y="569" type="curve" smooth="yes"></point>
      <point x="216" y="569"></point>
      <point x="248" y="600"></point>
      <point x="248" y="642" type="curve" smooth="yes"></point>
      <point x="248" y="684"></point>
      <point x="216" y="717"></point>
      <point x="172" y="717" type="curve" smooth="yes"></point>
      <point x="125" y="717"></point>
      <point x="95" y="684"></point>
    </contour>
  </outline>
</glyph>
<glyph name="k" format="1">
  <advance width="541"></advance>
  <unicode hex="006B"></unicode>
  <outline>
    <contour>
      <point x="80" y="112" type="line" smooth="yes"></point>
      <point x="80" y="87"></point>
      <point x="70" y="81"></point>
      <point x="51" y="79" type="curve" smooth="yes"></point>
      <point x="18" y="76" type="line"></point>
      <point x="18" y="0" type="line"></point>
      <point x="256" y="0" type="line"></point>
      <point x="256" y="80" type="line"></point>
      <point x="199" y="83" type="line"></point>
      <point x="198" y="83" type="line"></point>
      <point x="198" y="194" type="line"></point>
      <point x="221" y="197"></point>
      <point x="245" y="202"></point>
      <point x="266" y="208" type="curve"></point>
      <point x="380" y="0" type="line"></point>
      <point x="526" y="0" type="line"></point>
      <point x="526" y="80" type="line"></point>
      <point x="465" y="83" type="line"></point>
      <point x="367" y="259" type="line"></point>
      <point x="419" y="300"></point>
      <point x="446" y="351"></point>
      <point x="455" y="420" type="curve"></point>
      <point x="503" y="422" type="line"></point>
      <point x="503" y="503" type="line"></point>
      <point x="296" y="503" type="line"></point>
      <point x="296" y="425" type="line"></point>
      <point x="334" y="423" type="line"></point>
      <point x="348" y="423"></point>
      <point x="358" y="414"></point>
      <point x="350" y="390" type="curve" smooth="yes"></point>
      <point x="329" y="325"></point>
      <point x="269" y="287"></point>
      <point x="198" y="280" type="curve"></point>
      <point x="198" y="713" type="line"></point>
      <point x="20" y="713" type="line"></point>
      <point x="20" y="630" type="line"></point>
      <point x="55" y="628" type="line" smooth="yes"></point>
      <point x="74" y="627"></point>
      <point x="80" y="621"></point>
      <point x="80" y="599" type="curve" smooth="yes"></point>
    </contour>
  </outline>
</glyph>
<glyph name="l" format="1">
  <advance width="277"></advance>
  <unicode hex="006C"></unicode>
  <outline>
    <contour>
      <point x="196" y="713" type="line"></point>
      <point x="17" y="713" type="line"></point>
      <point x="17" y="630" type="line"></point>
      <point x="52" y="628" type="line" smooth="yes"></point>
      <point x="67" y="627"></point>
      <point x="77" y="622"></point>
      <point x="77" y="604" type="curve" smooth="yes"></point>
      <point x="77" y="111" type="line" smooth="yes"></point>
      <point x="77" y="87"></point>
      <point x="66" y="81"></point>
      <point x="48" y="79" type="curve" smooth="yes"></point>
      <point x="15" y="76" type="line"></point>
      <point x="15" y="0" type="line"></point>
      <point x="253" y="0" type="line"></point>
      <point x="253" y="80" type="line"></point>
      <point x="196" y="83" type="line"></point>
    </contour>
  </outline>
</glyph>
<glyph name="m" format="1">
  <advance width="819"></advance>
  <unicode hex="006D"></unicode>
  <outline>
    <contour>
      <point x="-5" y="422" type="line"></point>
      <point x="36" y="419" type="line" smooth="yes"></point>
      <point x="55" y="418"></point>
      <point x="61" y="410"></point>
      <point x="61" y="388" type="curve" smooth="yes"></point>
      <point x="61" y="112" type="line"></point>
      <point x="60" y="112" type="line"></point>
      <point x="60" y="87"></point>
      <point x="50" y="81"></point>
      <point x="31" y="79" type="curve" smooth="yes"></point>
      <point x="-1" y="76" type="line"></point>
      <point x="-1" y="0" type="line"></point>
      <point x="234" y="0" type="line"></point>
      <point x="234" y="80" type="line"></point>
      <point x="180" y="83" type="line"></point>
      <point x="180" y="325" type="line" smooth="yes"></point>
      <point x="180" y="377"></point>
      <point x="207" y="426"></point>
      <point x="277" y="426" type="curve" smooth="yes"></point>
      <point x="341" y="426"></point>
      <point x="346" y="379"></point>
      <point x="346" y="318" type="curve" smooth="yes"></point>
      <point x="346" y="112" type="line" smooth="yes"></point>
      <point x="346" y="87"></point>
      <point x="336" y="81"></point>
      <point x="317" y="79" type="curve" smooth="yes"></point>
      <point x="284" y="76" type="line"></point>
      <point x="284" y="0" type="line"></point>
      <point x="520" y="0" type="line"></point>
      <point x="520" y="80" type="line"></point>
      <point x="465" y="83" type="line"></point>
      <point x="465" y="323" type="line" smooth="yes"></point>
      <point x="465" y="382"></point>
      <point x="495" y="426"></point>
      <point x="562" y="426" type="curve" smooth="yes"></point>
      <point x="626" y="426"></point>
      <point x="631" y="379"></point>
      <point x="631" y="318" type="curve" smooth="yes"></point>
      <point x="631" y="111" type="line"></point>
      <point x="630" y="87"></point>
      <point x="620" y="81"></point>
      <point x="602" y="79" type="curve" smooth="yes"></point>
      <point x="569" y="76" type="line"></point>
      <point x="569" y="0" type="line"></point>
      <point x="807" y="0" type="line"></point>
      <point x="807" y="80" type="line"></point>
      <point x="750" y="83" type="line"></point>
      <point x="750" y="344" type="line" smooth="yes"></point>
      <point x="750" y="462"></point>
      <point x="694" y="518"></point>
      <point x="600" y="518" type="curve" smooth="yes"></point>
      <point x="534" y="518"></point>
      <point x="483" y="488"></point>
      <point x="448" y="438" type="curve"></point>
      <point x="425" y="492"></point>
      <point x="379" y="518"></point>
      <point x="315" y="518" type="curve" smooth="yes"></point>
      <point x="249" y="518"></point>
      <point x="198" y="488"></point>
      <point x="163" y="438" type="curve"></point>
      <point x="163" y="503" type="line"></point>
      <point x="-5" y="503" type="line"></point>
    </contour>
  </outline>
</glyph>
<glyph name="p" format="1">
  <advance width="567"></advance>
  <unicode hex="0070"></unicode>
  <outline>
    <contour>
      <point x="82" y="-95" type="line" smooth="yes"></point>
      <point x="82" y="-120"></point>
      <point x="72" y="-126"></point>
      <point x="53" y="-128" type="curve" smooth="yes"></point>
      <point x="20" y="-131" type="line"></point>
      <point x="20" y="-207" type="line"></point>
      <point x="278" y="-207" type="line"></point>
      <point x="278" y="-128" type="line"></point>
      <point x="197" y="-124" type="line"></point>
      <point x="197" y="14" type="line"></point>
      <point x="223" y="-2"></point>
      <point x="265" y="-15"></point>
      <point x="304" y="-15" type="curve" smooth="yes"></point>
      <point x="436" y="-15"></point>
      <point x="523" y="80"></point>
      <point x="523" y="264" type="curve" smooth="yes"></point>
      <point x="523" y="443"></point>
      <point x="453" y="518"></point>
      <point x="342" y="518" type="curve" smooth="yes"></point>
      <point x="257" y="518"></point>
      <point x="202" y="472"></point>
      <point x="184" y="438" type="curve"></point>
      <point x="184" y="503" type="line"></point>
      <point x="15" y="503" type="line"></point>
      <point x="15" y="422" type="line"></point>
      <point x="57" y="419" type="line"></point>
      <point x="76" y="419"></point>
      <point x="82" y="411"></point>
      <point x="82" y="389" type="curve" smooth="yes"></point>
    </contour>
    <contour>
      <point x="399" y="254" type="curve" smooth="yes"></point>
      <point x="399" y="167"></point>
      <point x="370" y="80"></point>
      <point x="285" y="80" type="curve" smooth="yes"></point>
      <point x="259" y="80"></point>
      <point x="223" y="88"></point>
      <point x="197" y="105" type="curve"></point>
      <point x="197" y="335" type="line" smooth="yes"></point>
      <point x="197" y="381"></point>
      <point x="241" y="421"></point>
      <point x="298" y="421" type="curve" smooth="yes"></point>
      <point x="351" y="421"></point>
      <point x="399" y="387"></point>
    </contour>
  </outline>
</glyph>
<glyph name="q" format="1">
  <advance width="554"></advance>
  <unicode hex="0071"></unicode>
  <outline>
    <contour>
      <point x="363" y="-95" type="line" smooth="yes"></point>
      <point x="363" y="-120"></point>
      <point x="352" y="-127"></point>
      <point x="333" y="-128" type="curve" smooth="yes"></point>
      <point x="274" y="-131" type="line"></point>
      <point x="274" y="-207" type="line"></point>
      <point x="537" y="-207" type="line"></point>
      <point x="537" y="-127" type="line"></point>
      <point x="479" y="-124" type="line"></point>
      <point x="479" y="481" type="line"></point>
      <point x="420" y="506"></point>
      <point x="342" y="518"></point>
      <point x="294" y="518" type="curve" smooth="yes"></point>
      <point x="143" y="518"></point>
      <point x="36" y="433"></point>
      <point x="36" y="230" type="curve" smooth="yes"></point>
      <point x="36" y="117"></point>
      <point x="84" y="-13"></point>
      <point x="230" y="-13" type="curve" smooth="yes"></point>
      <point x="279" y="-13"></point>
      <point x="329" y="3"></point>
      <point x="363" y="43" type="curve"></point>
    </contour>
    <contour>
      <point x="362" y="164" type="line" smooth="yes"></point>
      <point x="362" y="104"></point>
      <point x="320" y="75"></point>
      <point x="264" y="75" type="curve" smooth="yes"></point>
      <point x="168" y="75"></point>
      <point x="159" y="175"></point>
      <point x="159" y="246" type="curve" smooth="yes"></point>
      <point x="159" y="351"></point>
      <point x="200" y="431"></point>
      <point x="283" y="431" type="curve" smooth="yes"></point>
      <point x="311" y="431"></point>
      <point x="339" y="427"></point>
      <point x="362" y="419" type="curve"></point>
    </contour>
  </outline>
</glyph>
<glyph name="r" format="1">
  <advance width="453"></advance>
  <unicode hex="0072"></unicode>
  <outline>
    <contour>
      <point x="103" y="112" type="line" smooth="yes"></point>
      <point x="103" y="87"></point>
      <point x="93" y="81"></point>
      <point x="74" y="79" type="curve" smooth="yes"></point>
      <point x="41" y="76" type="line"></point>
      <point x="41" y="0" type="line"></point>
      <point x="309" y="0" type="line"></point>
      <point x="309" y="79" type="line"></point>
      <point x="222" y="83" type="line"></point>
      <point x="222" y="315" type="line" smooth="yes"></point>
      <point x="222" y="373"></point>
      <point x="259" y="416"></point>
      <point x="313" y="416" type="curve" smooth="yes"></point>
      <point x="324" y="416"></point>
      <point x="331" y="415"></point>
      <point x="340" y="411" type="curve" smooth="yes"></point>
      <point x="348" y="407"></point>
      <point x="350" y="398"></point>
      <point x="350" y="386" type="curve" smooth="yes"></point>
      <point x="350" y="340" type="line"></point>
      <point x="443" y="347" type="line"></point>
      <point x="443" y="496" type="line"></point>
      <point x="410" y="512"></point>
      <point x="380" y="518"></point>
      <point x="347" y="518" type="curve" smooth="yes"></point>
      <point x="281" y="518"></point>
      <point x="228" y="478"></point>
      <point x="205" y="428" type="curve"></point>
      <point x="205" y="503" type="line"></point>
      <point x="36" y="503" type="line"></point>
      <point x="36" y="422" type="line"></point>
      <point x="78" y="419" type="line" smooth="yes"></point>
      <point x="97" y="418"></point>
      <point x="103" y="411"></point>
      <point x="103" y="389" type="curve" smooth="yes"></point>
    </contour>
  </outline>
</glyph>
<glyph name="s" format="1">
  <advance width="428"></advance>
  <unicode hex="0073"></unicode>
  <outline>
    <contour>
      <point x="280" y="427" type="curve" smooth="yes"></point>
      <point x="298" y="420"></point>
      <point x="303" y="412"></point>
      <point x="303" y="393" type="curve" smooth="yes"></point>
      <point x="303" y="351" type="line"></point>
      <point x="393" y="358" type="line"></point>
      <point x="393" y="478" type="line"></point>
      <point x="354" y="497"></point>
      <point x="295" y="518"></point>
      <point x="227" y="518" type="curve" smooth="yes"></point>
      <point x="122" y="518"></point>
      <point x="34" y="463"></point>
      <point x="34" y="359" type="curve" smooth="yes"></point>
      <point x="34" y="248"></point>
      <point x="115" y="223"></point>
      <point x="189" y="204" type="curve" smooth="yes"></point>
      <point x="243" y="190"></point>
      <point x="287" y="181"></point>
      <point x="287" y="133" type="curve" smooth="yes"></point>
      <point x="287" y="91"></point>
      <point x="258" y="72"></point>
      <point x="208" y="72" type="curve" smooth="yes"></point>
      <point x="184" y="72"></point>
      <point x="161" y="75"></point>
      <point x="142" y="82" type="curve" smooth="yes"></point>
      <point x="124" y="89"></point>
      <point x="119" y="97"></point>
      <point x="119" y="116" type="curve" smooth="yes"></point>
      <point x="119" y="164" type="line"></point>
      <point x="29" y="157" type="line"></point>
      <point x="29" y="18" type="line"></point>
      <point x="71" y="-3"></point>
      <point x="150" y="-13"></point>
      <point x="213" y="-13" type="curve" smooth="yes"></point>
      <point x="320" y="-13"></point>
      <point x="406" y="43"></point>
      <point x="406" y="147" type="curve" smooth="yes"></point>
      <point x="406" y="256"></point>
      <point x="320" y="281"></point>
      <point x="242" y="303" type="curve" smooth="yes"></point>
      <point x="195" y="316"></point>
      <point x="147" y="330"></point>
      <point x="147" y="376" type="curve" smooth="yes"></point>
      <point x="147" y="416"></point>
      <point x="179" y="436"></point>
      <point x="222" y="436" type="curve" smooth="yes"></point>
      <point x="246" y="436"></point>
      <point x="261" y="434"></point>
    </contour>
  </outline>
</glyph>
<glyph name="t" format="1">
  <advance width="378"></advance>
  <unicode hex="0074"></unicode>
  <outline>
    <contour>
      <point x="149" y="609" type="line"></point>
      <point x="128" y="552"></point>
      <point x="104" y="498"></point>
      <point x="34" y="492" type="curve"></point>
      <point x="24" y="419" type="line"></point>
      <point x="95" y="419" type="line"></point>
      <point x="95" y="152" type="line" smooth="yes"></point>
      <point x="95" y="82"></point>
      <point x="94" y="-14"></point>
      <point x="250" y="-14" type="curve" smooth="yes"></point>
      <point x="297" y="-14"></point>
      <point x="347" y="0"></point>
      <point x="377" y="21" type="curve"></point>
      <point x="347" y="98" type="line"></point>
      <point x="331" y="88"></point>
      <point x="306" y="77"></point>
      <point x="279" y="77" type="curve" smooth="yes"></point>
      <point x="238" y="77"></point>
      <point x="214" y="95"></point>
      <point x="214" y="156" type="curve" smooth="yes"></point>
      <point x="214" y="419" type="line"></point>
      <point x="337" y="419" type="line"></point>
      <point x="347" y="503" type="line"></point>
      <point x="214" y="503" type="line"></point>
      <point x="214" y="609" type="line"></point>
    </contour>
  </outline>
</glyph>
<glyph name="u" format="1">
  <advance width="567"></advance>
  <unicode hex="0075"></unicode>
  <outline>
    <contour>
      <point x="548" y="79" type="line"></point>
      <point x="513" y="82" type="line" smooth="yes"></point>
      <point x="494" y="84"></point>
      <point x="488" y="89"></point>
      <point x="488" y="111" type="curve" smooth="yes"></point>
      <point x="488" y="503" type="line"></point>
      <point x="312" y="503" type="line"></point>
      <point x="312" y="421" type="line"></point>
      <point x="344" y="419" type="line" smooth="yes"></point>
      <point x="363" y="418"></point>
      <point x="369" y="411"></point>
      <point x="369" y="389" type="curve" smooth="yes"></point>
      <point x="369" y="178" type="line" smooth="yes"></point>
      <point x="369" y="126"></point>
      <point x="332" y="79"></point>
      <point x="262" y="79" type="curve" smooth="yes"></point>
      <point x="198" y="79"></point>
      <point x="188" y="125"></point>
      <point x="188" y="186" type="curve" smooth="yes"></point>
      <point x="188" y="503" type="line"></point>
      <point x="12" y="503" type="line"></point>
      <point x="12" y="421" type="line"></point>
      <point x="44" y="419" type="line" smooth="yes"></point>
      <point x="61" y="418"></point>
      <point x="69" y="412"></point>
      <point x="69" y="391" type="curve" smooth="yes"></point>
      <point x="69" y="160" type="line" smooth="yes"></point>
      <point x="69" y="42"></point>
      <point x="124" y="-13"></point>
      <point x="224" y="-13" type="curve" smooth="yes"></point>
      <point x="290" y="-13"></point>
      <point x="351" y="15"></point>
      <point x="386" y="65" type="curve"></point>
      <point x="386" y="0" type="line"></point>
      <point x="548" y="0" type="line"></point>
    </contour>
  </outline>
</glyph>
<glyph name="v" format="1">
  <advance width="554"></advance>
  <unicode hex="0076"></unicode>
  <outline>
    <contour>
      <point x="330" y="503" type="line"></point>
      <point x="330" y="423" type="line"></point>
      <point x="382" y="420" type="line"></point>
      <point x="282" y="91" type="line"></point>
      <point x="280" y="91" type="line"></point>
      <point x="177" y="420" type="line"></point>
      <point x="238" y="423" type="line"></point>
      <point x="238" y="503" type="line"></point>
      <point x="3" y="503" type="line"></point>
      <point x="3" y="425" type="line"></point>
      <point x="32" y="423" type="line" smooth="yes"></point>
      <point x="50" y="422"></point>
      <point x="55" y="416"></point>
      <point x="61" y="398" type="curve" smooth="yes"></point>
      <point x="201" y="0" type="line"></point>
      <point x="354" y="0" type="line"></point>
      <point x="483" y="399" type="line" smooth="yes"></point>
      <point x="489" y="418"></point>
      <point x="497" y="422"></point>
      <point x="510" y="423" type="curve" smooth="yes"></point>
      <point x="541" y="425" type="line"></point>
      <point x="541" y="503" type="line"></point>
    </contour>
  </outline>
</glyph>
<glyph name="w" format="1">
  <advance width="718"></advance>
  <unicode hex="0077"></unicode>
  <outline>
    <contour>
      <point x="322" y="483" type="line"></point>
      <point x="212" y="113" type="line"></point>
      <point x="210" y="113" type="line"></point>
      <point x="141" y="420" type="line"></point>
      <point x="197" y="423" type="line"></point>
      <point x="197" y="503" type="line"></point>
      <point x="-31" y="503" type="line"></point>
      <point x="-31" y="426" type="line"></point>
      <point x="-2" y="424" type="line" smooth="yes"></point>
      <point x="15" y="423"></point>
      <point x="20" y="417"></point>
      <point x="26" y="399" type="curve"></point>
      <point x="127" y="0" type="line"></point>
      <point x="274" y="0" type="line"></point>
      <point x="359" y="298" type="line"></point>
      <point x="362" y="298" type="line"></point>
      <point x="444" y="0" type="line"></point>
      <point x="588" y="0" type="line"></point>
      <point x="683" y="400" type="line"></point>
      <point x="689" y="419"></point>
      <point x="697" y="423"></point>
      <point x="710" y="424" type="curve" smooth="yes"></point>
      <point x="743" y="426" type="line"></point>
      <point x="743" y="503" type="line"></point>
      <point x="542" y="503" type="line"></point>
      <point x="542" y="423" type="line"></point>
      <point x="593" y="420" type="line"></point>
      <point x="525" y="111" type="line"></point>
      <point x="523" y="111" type="line"></point>
      <point x="419" y="483" type="line"></point>
    </contour>
  </outline>
</glyph>
<glyph name="x" format="1">
  <advance width="541"></advance>
  <unicode hex="0078"></unicode>
  <outline>
    <contour>
      <point x="326" y="106" type="line" smooth="yes"></point>
      <point x="335" y="94"></point>
      <point x="335" y="82"></point>
      <point x="316" y="81" type="curve" smooth="yes"></point>
      <point x="285" y="79" type="line"></point>
      <point x="285" y="0" type="line"></point>
      <point x="523" y="0" type="line"></point>
      <point x="523" y="79" type="line"></point>
      <point x="472" y="85" type="line"></point>
      <point x="341" y="259" type="line"></point>
      <point x="451" y="398" type="line" smooth="yes"></point>
      <point x="464" y="414"></point>
      <point x="474" y="422"></point>
      <point x="491" y="423" type="curve" smooth="yes"></point>
      <point x="521" y="425" type="line"></point>
      <point x="521" y="503" type="line"></point>
      <point x="318" y="503" type="line"></point>
      <point x="318" y="423" type="line"></point>
      <point x="359" y="420" type="line"></point>
      <point x="282" y="320" type="line"></point>
      <point x="225" y="396" type="line" smooth="yes"></point>
      <point x="216" y="408"></point>
      <point x="221" y="421"></point>
      <point x="237" y="422" type="curve" smooth="yes"></point>
      <point x="266" y="424" type="line"></point>
      <point x="266" y="503" type="line"></point>
      <point x="33" y="503" type="line"></point>
      <point x="33" y="426" type="line"></point>
      <point x="84" y="420" type="line"></point>
      <point x="207" y="250" type="line"></point>
      <point x="92" y="106" type="line" smooth="yes"></point>
      <point x="79" y="90"></point>
      <point x="69" y="84"></point>
      <point x="52" y="82" type="curve" smooth="yes"></point>
      <point x="21" y="79" type="line"></point>
      <point x="21" y="0" type="line"></point>
      <point x="229" y="0" type="line"></point>
      <point x="229" y="80" type="line"></point>
      <point x="182" y="83" type="line"></point>
      <point x="265" y="186" type="line"></point>
    </contour>
  </outline>
</glyph>
<glyph name="y" format="1">
  <advance width="554"></advance>
  <unicode hex="0079"></unicode>
  <outline>
    <contour>
      <point x="395" y="19" type="line" smooth="yes"></point>
      <point x="395" y="-72"></point>
      <point x="358" y="-128"></point>
      <point x="266" y="-128" type="curve" smooth="yes"></point>
      <point x="236" y="-128"></point>
      <point x="214" y="-125"></point>
      <point x="195" y="-118" type="curve" smooth="yes"></point>
      <point x="177" y="-111"></point>
      <point x="172" y="-101"></point>
      <point x="172" y="-82" type="curve" smooth="yes"></point>
      <point x="172" y="-34" type="line"></point>
      <point x="77" y="-42" type="line"></point>
      <point x="77" y="-181" type="line"></point>
      <point x="119" y="-202"></point>
      <point x="202" y="-214"></point>
      <point x="265" y="-214" type="curve" smooth="yes"></point>
      <point x="414" y="-214"></point>
      <point x="497" y="-146"></point>
      <point x="497" y="19" type="curve" smooth="yes"></point>
      <point x="497" y="503" type="line"></point>
      <point x="321" y="503" type="line"></point>
      <point x="321" y="421" type="line"></point>
      <point x="353" y="419" type="line"></point>
      <point x="372" y="419"></point>
      <point x="378" y="411"></point>
      <point x="378" y="389" type="curve" smooth="yes"></point>
      <point x="378" y="208" type="line" smooth="yes"></point>
      <point x="378" y="156"></point>
      <point x="341" y="109"></point>
      <point x="271" y="109" type="curve" smooth="yes"></point>
      <point x="207" y="109"></point>
      <point x="197" y="155"></point>
      <point x="197" y="216" type="curve" smooth="yes"></point>
      <point x="197" y="503" type="line"></point>
      <point x="21" y="503" type="line"></point>
      <point x="21" y="421" type="line"></point>
      <point x="53" y="419" type="line" smooth="yes"></point>
      <point x="70" y="418"></point>
      <point x="78" y="412"></point>
      <point x="78" y="391" type="curve" smooth="yes"></point>
      <point x="78" y="190" type="line" smooth="yes"></point>
      <point x="78" y="72"></point>
      <point x="133" y="17"></point>
      <point x="233" y="17" type="curve" smooth="yes"></point>
      <point x="299" y="17"></point>
      <point x="360" y="45"></point>
      <point x="395" y="95" type="curve"></point>
    </contour>
  </outline>
</glyph>
<glyph name="z" format="1">
  <advance width="516"></advance>
  <unicode hex="007A"></unicode>
  <outline>
    <contour>
      <point x="459" y="0" type="line"></point>
      <point x="459" y="159" type="line"></point>
      <point x="365" y="166" type="line"></point>
      <point x="365" y="124" type="line" smooth="yes"></point>
      <point x="365" y="104"></point>
      <point x="360" y="90"></point>
      <point x="336" y="90" type="curve" smooth="yes"></point>
      <point x="194" y="90" type="line"></point>
      <point x="454" y="435" type="line"></point>
      <point x="454" y="503" type="line"></point>
      <point x="56" y="503" type="line"></point>
      <point x="56" y="352" type="line"></point>
      <point x="150" y="345" type="line"></point>
      <point x="150" y="380" type="line" smooth="yes"></point>
      <point x="150" y="401"></point>
      <point x="152" y="414"></point>
      <point x="182" y="414" type="curve" smooth="yes"></point>
      <point x="308" y="414" type="line"></point>
      <point x="51" y="76" type="line"></point>
      <point x="51" y="0" type="line"></point>
    </contour>
  </outline>
</glyph>
<glyph name="braceleft" format="1">
  <advance width="365"></advance>
  <unicode hex="007B"></unicode>
  <outline>
    <contour>
      <point x="162" y="281" type="curve"></point>
      <point x="212" y="301"></point>
      <point x="228" y="341"></point>
      <point x="228" y="407" type="curve" smooth="yes"></point>
      <point x="228" y="453"></point>
      <point x="219" y="525"></point>
      <point x="219" y="570" type="curve" smooth="yes"></point>
      <point x="219" y="617"></point>
      <point x="225" y="640"></point>
      <point x="269" y="640" type="curve" smooth="yes"></point>
      <point x="280" y="640"></point>
      <point x="292" y="638"></point>
      <point x="309" y="635" type="curve"></point>
      <point x="319" y="709" type="line"></point>
      <point x="291" y="716"></point>
      <point x="261" y="719"></point>
      <point x="239" y="719" type="curve" smooth="yes"></point>
      <point x="159" y="719"></point>
      <point x="109" y="673"></point>
      <point x="113" y="579" type="curve" smooth="yes"></point>
      <point x="115" y="541"></point>
      <point x="119" y="485"></point>
      <point x="121" y="437" type="curve" smooth="yes"></point>
      <point x="124" y="357"></point>
      <point x="113" y="325"></point>
      <point x="57" y="318" type="curve"></point>
      <point x="57" y="244" type="line"></point>
      <point x="113" y="237"></point>
      <point x="123" y="198"></point>
      <point x="119" y="126" type="curve" smooth="yes"></point>
      <point x="115" y="70"></point>
      <point x="109" y="14"></point>
      <point x="109" y="-44" type="curve" smooth="yes"></point>
      <point x="109" y="-121"></point>
      <point x="155" y="-171"></point>
      <point x="237" y="-171" type="curve" smooth="yes"></point>
      <point x="258" y="-171"></point>
      <point x="288" y="-168"></point>
      <point x="316" y="-162" type="curve"></point>
      <point x="306" y="-86" type="line"></point>
      <point x="290" y="-90"></point>
      <point x="278" y="-91"></point>
      <point x="267" y="-91" type="curve" smooth="yes"></point>
      <point x="223" y="-91"></point>
      <point x="217" y="-62"></point>
      <point x="217" y="-16" type="curve" smooth="yes"></point>
      <point x="217" y="30"></point>
      <point x="228" y="114"></point>
      <point x="228" y="160" type="curve" smooth="yes"></point>
      <point x="228" y="232"></point>
      <point x="214" y="263"></point>
    </contour>
  </outline>
</glyph>
<glyph name="bar" format="1">
  <advance width="315"></advance>
  <unicode hex="007C"></unicode>
  <outline>
    <contour>
      <point x="104" y="-88" type="line"></point>
      <point x="208" y="-88" type="line"></point>
      <point x="208" y="747" type="line"></point>
      <point x="104" y="747" type="line"></point>
    </contour>
  </outline>
</glyph>
<glyph name="braceright" format="1">
  <advance width="441"></advance>
  <unicode hex="007D"></unicode>
  <outline>
    <contour>
      <point x="279" y="281" type="curve"></point>
      <point x="227" y="263"></point>
      <point x="213" y="232"></point>
      <point x="213" y="160" type="curve" smooth="yes"></point>
      <point x="213" y="114"></point>
      <point x="224" y="30"></point>
      <point x="224" y="-16" type="curve" smooth="yes"></point>
      <point x="224" y="-62"></point>
      <point x="218" y="-91"></point>
      <point x="174" y="-91" type="curve" smooth="yes"></point>
      <point x="163" y="-91"></point>
      <point x="151" y="-90"></point>
      <point x="135" y="-86" type="curve"></point>
      <point x="125" y="-162" type="line"></point>
      <point x="153" y="-168"></point>
      <point x="183" y="-171"></point>
      <point x="204" y="-171" type="curve" smooth="yes"></point>
      <point x="286" y="-171"></point>
      <point x="332" y="-121"></point>
      <point x="332" y="-44" type="curve" smooth="yes"></point>
      <point x="332" y="14"></point>
      <point x="326" y="70"></point>
      <point x="322" y="126" type="curve" smooth="yes"></point>
      <point x="318" y="198"></point>
      <point x="328" y="237"></point>
      <point x="384" y="244" type="curve"></point>
      <point x="384" y="318" type="line"></point>
      <point x="328" y="325"></point>
      <point x="317" y="357"></point>
      <point x="320" y="437" type="curve" smooth="yes"></point>
      <point x="322" y="485"></point>
      <point x="326" y="541"></point>
      <point x="328" y="579" type="curve" smooth="yes"></point>
      <point x="332" y="673"></point>
      <point x="282" y="719"></point>
      <point x="202" y="719" type="curve" smooth="yes"></point>
      <point x="180" y="719"></point>
      <point x="150" y="716"></point>
      <point x="122" y="709" type="curve"></point>
      <point x="132" y="635" type="line"></point>
      <point x="149" y="638"></point>
      <point x="161" y="640"></point>
      <point x="172" y="640" type="curve" smooth="yes"></point>
      <point x="216" y="640"></point>
      <point x="222" y="617"></point>
      <point x="222" y="570" type="curve" smooth="yes"></point>
      <point x="222" y="525"></point>
      <point x="213" y="453"></point>
      <point x="213" y="407" type="curve" smooth="yes"></point>
      <point x="213" y="341"></point>
      <point x="229" y="301"></point>
    </contour>
  </outline>
</glyph>
<glyph name="asciitilde" format="1">
  <advance width="579"></advance>
  <unicode hex="007E"></unicode>
  <outline>
    <contour>
      <point x="391" y="218" type="curve" smooth="yes"></point>
      <point x="445" y="218"></point>
      <point x="501" y="245"></point>
      <point x="537" y="322" type="curve"></point>
      <point x="464" y="376" type="line"></point>
      <point x="439" y="331"></point>
      <point x="414" y="312"></point>
      <point x="383" y="312" type="curve" smooth="yes"></point>
      <point x="319" y="312"></point>
      <point x="260" y="388"></point>
      <point x="179" y="388" type="curve" smooth="yes"></point>
      <point x="116" y="388"></point>
      <point x="71" y="346"></point>
      <point x="33" y="282" type="curve"></point>
      <point x="105" y="226" type="line"></point>
      <point x="131" y="265"></point>
      <point x="156" y="291"></point>
      <point x="189" y="291" type="curve" smooth="yes"></point>
      <point x="244" y="291"></point>
      <point x="306" y="218"></point>
    </contour>
  </outline>
</glyph>
<glyph name="exclamdown" format="1">
  <advance width="315"></advance>
  <unicode hex="00A1"></unicode>
  <outline>
    <contour>
      <point x="212" y="-28" type="line"></point>
      <point x="191" y="321" type="line"></point>
      <point x="120" y="321" type="line"></point>
      <point x="100" y="-28" type="line"></point>
      <point x="100" y="-145" type="line" smooth="yes"></point>
      <point x="100" y="-172"></point>
      <point x="113" y="-194"></point>
      <point x="157" y="-194" type="curve" smooth="yes"></point>
      <point x="198" y="-194"></point>
      <point x="212" y="-172"></point>
      <point x="212" y="-147" type="curve" smooth="yes"></point>
    </contour>
    <contour>
      <point x="226" y="451" type="curve" smooth="yes"></point>
      <point x="226" y="488"></point>
      <point x="201" y="518"></point>
      <point x="156" y="518" type="curve" smooth="yes"></point>
      <point x="114" y="518"></point>
      <point x="89" y="486"></point>
      <point x="89" y="450" type="curve" smooth="yes"></point>
      <point x="89" y="413"></point>
      <point x="115" y="385"></point>
      <point x="159" y="385" type="curve" smooth="yes"></point>
      <point x="198" y="385"></point>
      <point x="226" y="415"></point>
    </contour>
  </outline>
</glyph>
<glyph name="cent" format="1">
  <advance width="516"></advance>
  <unicode hex="00A2"></unicode>
  <outline>
    <contour>
      <point x="240" y="-60" type="line"></point>
      <point x="315" y="-60" type="line"></point>
      <point x="315" y="48" type="line"></point>
      <point x="377" y="53"></point>
      <point x="428" y="77"></point>
      <point x="463" y="105" type="curve"></point>
      <point x="420" y="182" type="line"></point>
      <point x="382" y="154"></point>
      <point x="350" y="141"></point>
      <point x="315" y="139" type="curve"></point>
      <point x="315" y="483" type="line"></point>
      <point x="324" y="482"></point>
      <point x="333" y="480"></point>
      <point x="341" y="478" type="curve"></point>
      <point x="359" y="472"></point>
      <point x="362" y="463"></point>
      <point x="362" y="444" type="curve" smooth="yes"></point>
      <point x="362" y="396" type="line"></point>
      <point x="454" y="403" type="line"></point>
      <point x="454" y="533" type="line"></point>
      <point x="412" y="555"></point>
      <point x="366" y="570"></point>
      <point x="315" y="573" type="curve"></point>
      <point x="315" y="685" type="line"></point>
      <point x="240" y="685" type="line"></point>
      <point x="240" y="569" type="line"></point>
      <point x="141" y="549"></point>
      <point x="45" y="473"></point>
      <point x="45" y="301" type="curve" smooth="yes"></point>
      <point x="45" y="154"></point>
      <point x="121" y="68"></point>
      <point x="240" y="50" type="curve"></point>
    </contour>
    <contour>
      <point x="166" y="313" type="curve" smooth="yes"></point>
      <point x="166" y="395"></point>
      <point x="192" y="449"></point>
      <point x="240" y="472" type="curve"></point>
      <point x="240" y="152" type="line"></point>
      <point x="189" y="176"></point>
      <point x="166" y="233"></point>
    </contour>
  </outline>
</glyph>
<glyph name="sterling" format="1">
  <advance width="541"></advance>
  <unicode hex="00A3"></unicode>
  <outline>
    <contour>
      <point x="102" y="210" type="line" smooth="yes"></point>
      <point x="97" y="142"></point>
      <point x="59" y="104"></point>
      <point x="18" y="85" type="curve"></point>
      <point x="18" y="-8" type="line"></point>
      <point x="58" y="10"></point>
      <point x="105" y="22"></point>
      <point x="144" y="22" type="curve" smooth="yes"></point>
      <point x="235" y="22"></point>
      <point x="290" y="-3"></point>
      <point x="386" y="-3" type="curve" smooth="yes"></point>
      <point x="411" y="-3"></point>
      <point x="441" y="0"></point>
      <point x="473" y="6" type="curve"></point>
      <point x="486" y="113" type="line"></point>
      <point x="451" y="103"></point>
      <point x="420" y="99"></point>
      <point x="392" y="99" type="curve" smooth="yes"></point>
      <point x="322" y="99"></point>
      <point x="277" y="119"></point>
      <point x="221" y="119" type="curve" smooth="yes"></point>
      <point x="188" y="119"></point>
      <point x="164" y="109"></point>
      <point x="137" y="99" type="curve"></point>
      <point x="135" y="103" type="line"></point>
      <point x="181" y="138"></point>
      <point x="218" y="188"></point>
      <point x="222" y="249" type="curve" smooth="yes"></point>
      <point x="225" y="290" type="line"></point>
      <point x="395" y="290" type="line"></point>
      <point x="405" y="373" type="line"></point>
      <point x="230" y="373" type="line"></point>
      <point x="236" y="450" type="line" smooth="yes"></point>
      <point x="241" y="527"></point>
      <point x="272" y="559"></point>
      <point x="340" y="559" type="curve" smooth="yes"></point>
      <point x="357" y="559"></point>
      <point x="373" y="556"></point>
      <point x="387" y="550" type="curve" smooth="yes"></point>
      <point x="405" y="543"></point>
      <point x="407" y="535"></point>
      <point x="407" y="516" type="curve" smooth="yes"></point>
      <point x="407" y="469" type="line"></point>
      <point x="509" y="476" type="line"></point>
      <point x="509" y="616" type="line"></point>
      <point x="466" y="639"></point>
      <point x="397" y="657"></point>
      <point x="339" y="657" type="curve" smooth="yes"></point>
      <point x="230" y="657"></point>
      <point x="131" y="612"></point>
      <point x="120" y="459" type="curve" smooth="yes"></point>
      <point x="114" y="373" type="line"></point>
      <point x="34" y="373" type="line"></point>
      <point x="24" y="289" type="line"></point>
      <point x="108" y="289" type="line"></point>
    </contour>
  </outline>
</glyph>
<glyph name="yen" format="1">
  <advance width="529"></advance>
  <unicode hex="00A5"></unicode>
  <outline>
    <contour>
      <point x="48" y="296" type="line"></point>
      <point x="201" y="296" type="line"></point>
      <point x="201" y="231" type="line"></point>
      <point x="48" y="231" type="line"></point>
      <point x="48" y="155" type="line"></point>
      <point x="201" y="155" type="line"></point>
      <point x="201" y="112" type="line" smooth="yes"></point>
      <point x="201" y="92"></point>
      <point x="191" y="85"></point>
      <point x="172" y="84" type="curve" smooth="yes"></point>
      <point x="119" y="81" type="line"></point>
      <point x="119" y="0" type="line"></point>
      <point x="401" y="0" type="line"></point>
      <point x="401" y="85" type="line"></point>
      <point x="323" y="88" type="line"></point>
      <point x="323" y="155" type="line"></point>
      <point x="476" y="155" type="line"></point>
      <point x="476" y="231" type="line"></point>
      <point x="323" y="231" type="line"></point>
      <point x="323" y="296" type="line"></point>
      <point x="476" y="296" type="line"></point>
      <point x="476" y="372" type="line"></point>
      <point x="363" y="372" type="line"></point>
      <point x="470" y="551" type="line" smooth="yes"></point>
      <point x="480" y="569"></point>
      <point x="488" y="579"></point>
      <point x="504" y="581" type="curve" smooth="yes"></point>
      <point x="534" y="584" type="line"></point>
      <point x="534" y="665" type="line"></point>
      <point x="319" y="665" type="line"></point>
      <point x="319" y="580" type="line"></point>
      <point x="369" y="576" type="line"></point>
      <point x="270" y="388" type="line"></point>
      <point x="266" y="388" type="line"></point>
      <point x="191" y="542" type="line" smooth="yes"></point>
      <point x="180" y="563"></point>
      <point x="186" y="579"></point>
      <point x="208" y="581" type="curve" smooth="yes"></point>
      <point x="238" y="584" type="line"></point>
      <point x="238" y="665" type="line"></point>
      <point x="-5" y="665" type="line"></point>
      <point x="-5" y="580" type="line"></point>
      <point x="41" y="577" type="line"></point>
      <point x="161" y="372" type="line"></point>
      <point x="48" y="372" type="line"></point>
    </contour>
  </outline>
</glyph>
<glyph name="brokenbar" format="1">
  <advance width="315"></advance>
  <unicode hex="00A6"></unicode>
  <outline>
    <contour>
      <point x="104" y="-88" type="line"></point>
      <point x="209" y="-88" type="line"></point>
      <point x="209" y="286" type="line"></point>
      <point x="104" y="286" type="line"></point>
    </contour>
    <contour>
      <point x="104" y="403" type="line"></point>
      <point x="209" y="403" type="line"></point>
      <point x="209" y="747" type="line"></point>
      <point x="104" y="747" type="line"></point>
    </contour>
  </outline>
</glyph>
<glyph name="section" format="1">
  <advance width="529"></advance>
  <unicode hex="00A7"></unicode>
  <outline>
    <contour>
      <point x="400" y="35" type="curve"></point>
      <point x="456" y="83"></point>
      <point x="482" y="139"></point>
      <point x="482" y="190" type="curve" smooth="yes"></point>
      <point x="482" y="277"></point>
      <point x="422" y="328"></point>
      <point x="347" y="376" type="curve" smooth="yes"></point>
      <point x="279" y="419"></point>
      <point x="216" y="447"></point>
      <point x="216" y="509" type="curve" smooth="yes"></point>
      <point x="216" y="549"></point>
      <point x="242" y="577"></point>
      <point x="297" y="577" type="curve" smooth="yes"></point>
      <point x="312" y="577"></point>
      <point x="323" y="575"></point>
      <point x="333" y="572" type="curve" smooth="yes"></point>
      <point x="351" y="566"></point>
      <point x="354" y="556"></point>
      <point x="354" y="537" type="curve" smooth="yes"></point>
      <point x="354" y="489" type="line"></point>
      <point x="446" y="496" type="line"></point>
      <point x="446" y="626" type="line"></point>
      <point x="398" y="651"></point>
      <point x="351" y="667"></point>
      <point x="288" y="667" type="curve" smooth="yes"></point>
      <point x="140" y="667"></point>
      <point x="107" y="563"></point>
      <point x="107" y="500" type="curve" smooth="yes"></point>
      <point x="107" y="471"></point>
      <point x="111" y="447"></point>
      <point x="120" y="427" type="curve"></point>
      <point x="64" y="379"></point>
      <point x="36" y="323"></point>
      <point x="36" y="268" type="curve" smooth="yes"></point>
      <point x="36" y="185"></point>
      <point x="84" y="138"></point>
      <point x="173" y="86" type="curve" smooth="yes"></point>
      <point x="242" y="45"></point>
      <point x="304" y="15"></point>
      <point x="304" y="-47" type="curve" smooth="yes"></point>
      <point x="304" y="-87"></point>
      <point x="278" y="-115"></point>
      <point x="223" y="-115" type="curve" smooth="yes"></point>
      <point x="208" y="-115"></point>
      <point x="197" y="-113"></point>
      <point x="187" y="-110" type="curve" smooth="yes"></point>
      <point x="169" y="-104"></point>
      <point x="166" y="-94"></point>
      <point x="166" y="-75" type="curve" smooth="yes"></point>
      <point x="166" y="-27" type="line"></point>
      <point x="74" y="-34" type="line"></point>
      <point x="74" y="-166" type="line"></point>
      <point x="122" y="-191"></point>
      <point x="169" y="-205"></point>
      <point x="232" y="-205" type="curve" smooth="yes"></point>
      <point x="380" y="-205"></point>
      <point x="413" y="-101"></point>
      <point x="413" y="-38" type="curve" smooth="yes"></point>
      <point x="413" y="-9"></point>
      <point x="408" y="14"></point>
    </contour>
    <contour>
      <point x="258" y="168" type="curve" smooth="yes"></point>
      <point x="184" y="217"></point>
      <point x="146" y="236"></point>
      <point x="146" y="289" type="curve" smooth="yes"></point>
      <point x="146" y="312"></point>
      <point x="157" y="338"></point>
      <point x="175" y="355" type="curve"></point>
      <point x="199" y="334"></point>
      <point x="229" y="315"></point>
      <point x="262" y="294" type="curve" smooth="yes"></point>
      <point x="336" y="245"></point>
      <point x="374" y="226"></point>
      <point x="374" y="173" type="curve" smooth="yes"></point>
      <point x="374" y="150"></point>
      <point x="363" y="123"></point>
      <point x="345" y="107" type="curve"></point>
      <point x="320" y="128"></point>
      <point x="290" y="146"></point>
    </contour>
  </outline>
</glyph>
<glyph name="dieresis" format="1">
  <advance width="478"></advance>
  <unicode hex="00A8"></unicode>
  <outline>
    <contour>
      <point x="322" y="647" type="curve" smooth="yes"></point>
      <point x="322" y="609"></point>
      <point x="349" y="581"></point>
      <point x="391" y="581" type="curve" smooth="yes"></point>
      <point x="431" y="581"></point>
      <point x="460" y="609"></point>
      <point x="460" y="647" type="curve" smooth="yes"></point>
      <point x="460" y="684"></point>
      <point x="432" y="714"></point>
      <point x="391" y="714" type="curve" smooth="yes"></point>
      <point x="350" y="714"></point>
      <point x="322" y="684"></point>
    </contour>
    <contour>
      <point x="122" y="647" type="curve" smooth="yes"></point>
      <point x="122" y="609"></point>
      <point x="149" y="581"></point>
      <point x="191" y="581" type="curve" smooth="yes"></point>
      <point x="231" y="581"></point>
      <point x="260" y="609"></point>
      <point x="260" y="647" type="curve" smooth="yes"></point>
      <point x="260" y="684"></point>
      <point x="232" y="714"></point>
      <point x="191" y="714" type="curve" smooth="yes"></point>
      <point x="150" y="714"></point>
      <point x="122" y="684"></point>
    </contour>
  </outline>
</glyph>
<glyph name="copyright" format="1">
  <advance width="781"></advance>
  <unicode hex="00A9"></unicode>
  <outline>
    <contour>
      <point x="735" y="332" type="curve" smooth="yes"></point>
      <point x="735" y="521"></point>
      <point x="591" y="676"></point>
      <point x="384" y="676" type="curve" smooth="yes"></point>
      <point x="183" y="676"></point>
      <point x="42" y="521"></point>
      <point x="42" y="326" type="curve" smooth="yes"></point>
      <point x="42" y="124"></point>
      <point x="172" y="-20"></point>
      <point x="384" y="-20" type="curve" smooth="yes"></point>
      <point x="590" y="-20"></point>
      <point x="735" y="132"></point>
    </contour>
    <contour>
      <point x="656" y="329" type="curve" smooth="yes"></point>
      <point x="656" y="169"></point>
      <point x="541" y="52"></point>
      <point x="385" y="52" type="curve" smooth="yes"></point>
      <point x="231" y="52"></point>
      <point x="121" y="158"></point>
      <point x="121" y="326" type="curve" smooth="yes"></point>
      <point x="121" y="483"></point>
      <point x="227" y="604"></point>
      <point x="385" y="604" type="curve" smooth="yes"></point>
      <point x="539" y="604"></point>
      <point x="656" y="486"></point>
    </contour>
    <contour>
      <point x="391" y="198" type="curve" smooth="yes"></point>
      <point x="324" y="198"></point>
      <point x="294" y="249"></point>
      <point x="294" y="332" type="curve" smooth="yes"></point>
      <point x="294" y="431"></point>
      <point x="341" y="461"></point>
      <point x="385" y="461" type="curve" smooth="yes"></point>
      <point x="429" y="461"></point>
      <point x="457" y="437"></point>
      <point x="481" y="411" type="curve"></point>
      <point x="537" y="455" type="line"></point>
      <point x="501" y="504"></point>
      <point x="449" y="530"></point>
      <point x="387" y="530" type="curve" smooth="yes"></point>
      <point x="315" y="530"></point>
      <point x="214" y="486"></point>
      <point x="214" y="331" type="curve" smooth="yes"></point>
      <point x="214" y="209"></point>
      <point x="271" y="130"></point>
      <point x="389" y="130" type="curve" smooth="yes"></point>
      <point x="452" y="130"></point>
      <point x="499" y="157"></point>
      <point x="527" y="186" type="curve"></point>
      <point x="487" y="240" type="line"></point>
      <point x="459" y="217"></point>
      <point x="432" y="198"></point>
    </contour>
  </outline>
</glyph>
<glyph name="ordfeminine" format="1">
  <advance width="466"></advance>
  <unicode hex="00AA"></unicode>
  <outline>
    <contour>
      <point x="295" y="264" type="line"></point>
      <point x="411" y="264" type="line"></point>
      <point x="411" y="321" type="line"></point>
      <point x="394" y="322" type="line" smooth="yes"></point>
      <point x="378" y="323"></point>
      <point x="373" y="327"></point>
      <point x="373" y="342" type="curve" smooth="yes"></point>
      <point x="373" y="586" type="line"></point>
      <point x="324" y="604"></point>
      <point x="271" y="610"></point>
      <point x="245" y="610" type="curve" smooth="yes"></point>
      <point x="128" y="610"></point>
      <point x="63" y="535"></point>
      <point x="63" y="419" type="curve" smooth="yes"></point>
      <point x="63" y="334"></point>
      <point x="100" y="256"></point>
      <point x="198" y="256" type="curve" smooth="yes"></point>
      <point x="242" y="256"></point>
      <point x="270" y="276"></point>
      <point x="291" y="302" type="curve"></point>
      <point x="295" y="302" type="line"></point>
    </contour>
    <contour>
      <point x="281" y="369" type="line" smooth="yes"></point>
      <point x="281" y="350"></point>
      <point x="258" y="324"></point>
      <point x="221" y="324" type="curve" smooth="yes"></point>
      <point x="173" y="324"></point>
      <point x="155" y="366"></point>
      <point x="155" y="429" type="curve" smooth="yes"></point>
      <point x="155" y="490"></point>
      <point x="178" y="541"></point>
      <point x="235" y="541" type="curve" smooth="yes"></point>
      <point x="253" y="541"></point>
      <point x="270" y="537"></point>
      <point x="281" y="533" type="curve"></point>
    </contour>
  </outline>
</glyph>
<glyph name="guillemotleft" format="1">
  <advance width="516"></advance>
  <unicode hex="00AB"></unicode>
  <outline>
    <contour>
      <point x="276" y="406" type="line"></point>
      <point x="229" y="451" type="line"></point>
      <point x="59" y="315" type="line" smooth="yes"></point>
      <point x="39" y="299"></point>
      <point x="30" y="283"></point>
      <point x="30" y="264" type="curve" smooth="yes"></point>
      <point x="30" y="250"></point>
      <point x="35" y="234"></point>
      <point x="48" y="222" type="curve" smooth="yes"></point>
      <point x="222" y="61" type="line"></point>
      <point x="269" y="103" type="line"></point>
      <point x="156" y="263" type="line"></point>
    </contour>
    <contour>
      <point x="480" y="406" type="line"></point>
      <point x="433" y="451" type="line"></point>
      <point x="263" y="315" type="line" smooth="yes"></point>
      <point x="243" y="299"></point>
      <point x="234" y="283"></point>
      <point x="234" y="264" type="curve" smooth="yes"></point>
      <point x="234" y="250"></point>
      <point x="239" y="234"></point>
      <point x="252" y="222" type="curve" smooth="yes"></point>
      <point x="426" y="61" type="line"></point>
      <point x="473" y="103" type="line"></point>
      <point x="360" y="263" type="line"></point>
    </contour>
  </outline>
</glyph>
<glyph name="logicalnot" format="1">
  <advance width="554"></advance>
  <unicode hex="00AC"></unicode>
  <outline>
    <contour>
      <point x="390" y="171" type="line"></point>
      <point x="486" y="171" type="line"></point>
      <point x="486" y="412" type="line"></point>
      <point x="57" y="412" type="line"></point>
      <point x="57" y="315" type="line"></point>
      <point x="390" y="315" type="line"></point>
    </contour>
  </outline>
</glyph>
<glyph name="uni00AD" format="1">
  <advance width="415"></advance>
  <unicode hex="00AD"></unicode>
  <outline>
    <contour>
      <point x="83" y="244" type="line"></point>
      <point x="320" y="244" type="line"></point>
      <point x="320" y="337" type="line"></point>
      <point x="83" y="337" type="line"></point>
    </contour>
  </outline>
</glyph>
<glyph name="registered" format="1">
  <advance width="554"></advance>
  <unicode hex="00AE"></unicode>
  <outline>
    <contour>
      <point x="328" y="459" type="line" smooth="yes"></point>
      <point x="326" y="464"></point>
      <point x="322" y="471"></point>
      <point x="315" y="474" type="curve"></point>
      <point x="334" y="483"></point>
      <point x="349" y="501"></point>
      <point x="349" y="532" type="curve" smooth="yes"></point>
      <point x="349" y="571"></point>
      <point x="322" y="589"></point>
      <point x="279" y="589" type="curve" smooth="yes"></point>
      <point x="203" y="589" type="line"></point>
      <point x="203" y="378" type="line"></point>
      <point x="248" y="378" type="line"></point>
      <point x="248" y="462" type="line"></point>
      <point x="267" y="462" type="line" smooth="yes"></point>
      <point x="275" y="462"></point>
      <point x="279" y="457"></point>
      <point x="283" y="448" type="curve" smooth="yes"></point>
      <point x="314" y="378" type="line"></point>
      <point x="364" y="378" type="line"></point>
    </contour>
    <contour>
      <point x="248" y="498" type="line"></point>
      <point x="248" y="553" type="line"></point>
      <point x="264" y="553" type="line" smooth="yes"></point>
      <point x="285" y="553"></point>
      <point x="300" y="550"></point>
      <point x="300" y="528" type="curve" smooth="yes"></point>
      <point x="300" y="506"></point>
      <point x="287" y="498"></point>
      <point x="264" y="498" type="curve" smooth="yes"></point>
    </contour>
    <contour>
      <point x="474" y="483" type="curve" smooth="yes"></point>
      <point x="474" y="593"></point>
      <point x="390" y="677"></point>
      <point x="270" y="677" type="curve" smooth="yes"></point>
      <point x="153" y="677"></point>
      <point x="71" y="593"></point>
      <point x="71" y="481" type="curve" smooth="yes"></point>
      <point x="71" y="368"></point>
      <point x="147" y="286"></point>
      <point x="270" y="286" type="curve" smooth="yes"></point>
      <point x="390" y="286"></point>
      <point x="474" y="368"></point>
    </contour>
    <contour>
      <point x="421" y="481" type="curve" smooth="yes"></point>
      <point x="421" y="390"></point>
      <point x="358" y="331"></point>
      <point x="270" y="331" type="curve" smooth="yes"></point>
      <point x="185" y="331"></point>
      <point x="124" y="392"></point>
      <point x="124" y="481" type="curve" smooth="yes"></point>
      <point x="124" y="568"></point>
      <point x="181" y="631"></point>
      <point x="270" y="631" type="curve" smooth="yes"></point>
      <point x="357" y="631"></point>
      <point x="421" y="568"></point>
    </contour>
  </outline>
</glyph>
<glyph name="degree" format="1">
  <advance width="352"></advance>
  <unicode hex="00B0"></unicode>
  <outline>
    <contour>
      <point x="60" y="596" type="curve" smooth="yes"></point>
      <point x="60" y="532"></point>
      <point x="100" y="481"></point>
      <point x="171" y="481" type="curve" smooth="yes"></point>
      <point x="242" y="481"></point>
      <point x="288" y="532"></point>
      <point x="288" y="602" type="curve" smooth="yes"></point>
      <point x="288" y="662"></point>
      <point x="246" y="714"></point>
      <point x="174" y="714" type="curve" smooth="yes"></point>
      <point x="106" y="714"></point>
      <point x="60" y="663"></point>
    </contour>
    <contour>
      <point x="122" y="596" type="curve" smooth="yes"></point>
      <point x="122" y="632"></point>
      <point x="138" y="657"></point>
      <point x="174" y="657" type="curve" smooth="yes"></point>
      <point x="209" y="657"></point>
      <point x="225" y="632"></point>
      <point x="225" y="596" type="curve" smooth="yes"></point>
      <point x="225" y="563"></point>
      <point x="208" y="537"></point>
      <point x="174" y="537" type="curve" smooth="yes"></point>
      <point x="140" y="537"></point>
      <point x="122" y="562"></point>
    </contour>
  </outline>
</glyph>
<glyph name="plusminus" format="1">
  <advance width="529"></advance>
  <unicode hex="00B1"></unicode>
  <outline>
    <contour>
      <point x="209" y="364" type="line"></point>
      <point x="60" y="364" type="line"></point>
      <point x="60" y="266" type="line"></point>
      <point x="209" y="266" type="line"></point>
      <point x="209" y="132" type="line"></point>
      <point x="60" y="132" type="line"></point>
      <point x="60" y="35" type="line"></point>
      <point x="465" y="35" type="line"></point>
      <point x="465" y="132" type="line"></point>
      <point x="311" y="132" type="line"></point>
      <point x="311" y="266" type="line"></point>
      <point x="465" y="266" type="line"></point>
      <point x="465" y="364" type="line"></point>
      <point x="311" y="364" type="line"></point>
      <point x="311" y="520" type="line"></point>
      <point x="209" y="520" type="line"></point>
    </contour>
  </outline>
</glyph>
<glyph name="twosuperior" format="1">
  <advance width="428"></advance>
  <unicode hex="00B2"></unicode>
  <outline>
    <contour>
      <point x="213" y="737" type="curve" smooth="yes"></point>
      <point x="158" y="737"></point>
      <point x="108" y="723"></point>
      <point x="63" y="700" type="curve"></point>
      <point x="63" y="591" type="line"></point>
      <point x="139" y="587" type="line"></point>
      <point x="139" y="632" type="line" smooth="yes"></point>
      <point x="139" y="646"></point>
      <point x="139" y="652"></point>
      <point x="153" y="658" type="curve" smooth="yes"></point>
      <point x="162" y="662"></point>
      <point x="174" y="665"></point>
      <point x="196" y="665" type="curve" smooth="yes"></point>
      <point x="223" y="665"></point>
      <point x="243" y="651"></point>
      <point x="243" y="623" type="curve" smooth="yes"></point>
      <point x="243" y="595"></point>
      <point x="224" y="573"></point>
      <point x="199" y="543" type="curve" smooth="yes"></point>
      <point x="75" y="399" type="line"></point>
      <point x="75" y="341" type="line"></point>
      <point x="350" y="341" type="line"></point>
      <point x="350" y="416" type="line"></point>
      <point x="192" y="416" type="line"></point>
      <point x="281" y="517" type="line" smooth="yes"></point>
      <point x="316" y="558"></point>
      <point x="337" y="589"></point>
      <point x="337" y="637" type="curve" smooth="yes"></point>
      <point x="337" y="693"></point>
      <point x="297" y="737"></point>
    </contour>
  </outline>
</glyph>
<glyph name="threesuperior" format="1">
  <advance width="415"></advance>
  <unicode hex="00B3"></unicode>
  <outline>
    <contour>
      <point x="148" y="571" type="line"></point>
      <point x="142" y="505" type="line"></point>
      <point x="174" y="505" type="line" smooth="yes"></point>
      <point x="234" y="505"></point>
      <point x="258" y="489"></point>
      <point x="258" y="453" type="curve" smooth="yes"></point>
      <point x="258" y="416"></point>
      <point x="229" y="406"></point>
      <point x="195" y="406" type="curve" smooth="yes"></point>
      <point x="164" y="406"></point>
      <point x="124" y="418"></point>
      <point x="97" y="432" type="curve"></point>
      <point x="74" y="367" type="line"></point>
      <point x="98" y="352"></point>
      <point x="150" y="336"></point>
      <point x="199" y="336" type="curve" smooth="yes"></point>
      <point x="298" y="336"></point>
      <point x="345" y="389"></point>
      <point x="345" y="459" type="curve" smooth="yes"></point>
      <point x="345" y="491"></point>
      <point x="333" y="528"></point>
      <point x="281" y="544" type="curve"></point>
      <point x="316" y="568"></point>
      <point x="338" y="598"></point>
      <point x="338" y="641" type="curve" smooth="yes"></point>
      <point x="338" y="696"></point>
      <point x="296" y="737"></point>
      <point x="216" y="737" type="curve" smooth="yes"></point>
      <point x="166" y="737"></point>
      <point x="115" y="723"></point>
      <point x="82" y="707" type="curve"></point>
      <point x="82" y="612" type="line"></point>
      <point x="152" y="607" type="line"></point>
      <point x="152" y="640" type="line" smooth="yes"></point>
      <point x="152" y="652"></point>
      <point x="152" y="658"></point>
      <point x="165" y="662" type="curve" smooth="yes"></point>
      <point x="174" y="665"></point>
      <point x="186" y="667"></point>
      <point x="201" y="667" type="curve" smooth="yes"></point>
      <point x="232" y="667"></point>
      <point x="251" y="657"></point>
      <point x="251" y="626" type="curve" smooth="yes"></point>
      <point x="251" y="601"></point>
      <point x="235" y="584"></point>
      <point x="213" y="571" type="curve"></point>
    </contour>
  </outline>
</glyph>
<glyph name="acute" format="1">
  <advance width="390"></advance>
  <unicode hex="00B4"></unicode>
  <outline>
    <contour>
      <point x="122" y="594" type="line"></point>
      <point x="161" y="561" type="line"></point>
      <point x="289" y="685" type="line" smooth="yes"></point>
      <point x="318" y="713"></point>
      <point x="326" y="745"></point>
      <point x="285" y="764" type="curve" smooth="yes"></point>
      <point x="238" y="786" type="line"></point>
    </contour>
  </outline>
</glyph>
<glyph name="mu" format="1">
  <advance width="579"></advance>
  <unicode hex="00B5"></unicode>
  <outline>
    <contour>
      <point x="490" y="503" type="line"></point>
      <point x="376" y="503" type="line"></point>
      <point x="376" y="231" type="line" smooth="yes"></point>
      <point x="376" y="135"></point>
      <point x="339" y="70"></point>
      <point x="269" y="70" type="curve" smooth="yes"></point>
      <point x="194" y="70"></point>
      <point x="172" y="128"></point>
      <point x="172" y="214" type="curve" smooth="yes"></point>
      <point x="172" y="503" type="line"></point>
      <point x="60" y="503" type="line"></point>
      <point x="60" y="-216" type="line"></point>
      <point x="167" y="-216" type="line"></point>
      <point x="167" y="35" type="line"></point>
      <point x="189" y="2"></point>
      <point x="229" y="-14"></point>
      <point x="270" y="-14" type="curve" smooth="yes"></point>
      <point x="328" y="-14"></point>
      <point x="378" y="20"></point>
      <point x="399" y="69" type="curve"></point>
      <point x="402" y="14"></point>
      <point x="426" y="-12"></point>
      <point x="478" y="-12" type="curve" smooth="yes"></point>
      <point x="506" y="-12"></point>
      <point x="540" y="-4"></point>
      <point x="569" y="12" type="curve"></point>
      <point x="555" y="82" type="line"></point>
      <point x="538" y="74"></point>
      <point x="527" y="70"></point>
      <point x="516" y="70" type="curve" smooth="yes"></point>
      <point x="500" y="70"></point>
      <point x="490" y="78"></point>
      <point x="490" y="103" type="curve" smooth="yes"></point>
    </contour>
  </outline>
</glyph>
<glyph name="paragraph" format="1">
  <advance width="529"></advance>
  <unicode hex="00B6"></unicode>
  <outline>
    <contour>
      <point x="445" y="549" type="line" smooth="yes"></point>
      <point x="445" y="573"></point>
      <point x="457" y="579"></point>
      <point x="474" y="581" type="curve" smooth="yes"></point>
      <point x="507" y="584" type="line"></point>
      <point x="507" y="665" type="line"></point>
      <point x="280" y="665" type="line" smooth="yes"></point>
      <point x="145" y="665"></point>
      <point x="39" y="602"></point>
      <point x="39" y="430" type="curve" smooth="yes"></point>
      <point x="39" y="284"></point>
      <point x="140" y="218"></point>
      <point x="258" y="215" type="curve"></point>
      <point x="258" y="579" type="line"></point>
      <point x="330" y="579" type="line"></point>
      <point x="330" y="62" type="line" smooth="yes"></point>
      <point x="330" y="-32"></point>
      <point x="294" y="-78"></point>
      <point x="175" y="-107" type="curve"></point>
      <point x="200" y="-205" type="line"></point>
      <point x="397" y="-165"></point>
      <point x="445" y="-87"></point>
      <point x="445" y="81" type="curve" smooth="yes"></point>
    </contour>
  </outline>
</glyph>
<glyph name="periodcentered" format="1">
  <advance width="327"></advance>
  <unicode hex="00B7"></unicode>
  <outline>
    <contour>
      <point x="92" y="307" type="curve" smooth="yes"></point>
      <point x="92" y="267"></point>
      <point x="116" y="239"></point>
      <point x="163" y="239" type="curve" smooth="yes"></point>
      <point x="206" y="239"></point>
      <point x="231" y="269"></point>
      <point x="231" y="308" type="curve" smooth="yes"></point>
      <point x="231" y="348"></point>
      <point x="205" y="375"></point>
      <point x="160" y="375" type="curve" smooth="yes"></point>
      <point x="118" y="375"></point>
      <point x="92" y="346"></point>
    </contour>
  </outline>
</glyph>
<glyph name="cedilla" format="1">
  <advance width="390"></advance>
  <unicode hex="00B8"></unicode>
  <outline>
    <contour>
      <point x="201" y="3" type="line"></point>
      <point x="165" y="-110" type="line"></point>
      <point x="218" y="-110"></point>
      <point x="253" y="-117"></point>
      <point x="253" y="-148" type="curve" smooth="yes"></point>
      <point x="253" y="-168"></point>
      <point x="240" y="-185"></point>
      <point x="205" y="-185" type="curve" smooth="yes"></point>
      <point x="182" y="-185"></point>
      <point x="153" y="-177"></point>
      <point x="138" y="-172" type="curve"></point>
      <point x="122" y="-224" type="line"></point>
      <point x="145" y="-234"></point>
      <point x="179" y="-242"></point>
      <point x="212" y="-242" type="curve" smooth="yes"></point>
      <point x="267" y="-242"></point>
      <point x="334" y="-218"></point>
      <point x="334" y="-145" type="curve" smooth="yes"></point>
      <point x="334" y="-94"></point>
      <point x="294" y="-67"></point>
      <point x="241" y="-63" type="curve"></point>
      <point x="258" y="3" type="line"></point>
    </contour>
  </outline>
</glyph>
<glyph name="onesuperior" format="1">
  <advance width="403"></advance>
  <unicode hex="00B9"></unicode>
  <outline>
    <contour>
      <point x="98" y="407" type="line"></point>
      <point x="98" y="341" type="line"></point>
      <point x="331" y="341" type="line"></point>
      <point x="331" y="408" type="line"></point>
      <point x="261" y="411" type="line"></point>
      <point x="261" y="731" type="line"></point>
      <point x="188" y="731" type="line"></point>
      <point x="63" y="660" type="line"></point>
      <point x="92" y="603" type="line"></point>
      <point x="173" y="639" type="line"></point>
      <point x="173" y="427" type="line" smooth="yes"></point>
      <point x="173" y="416"></point>
      <point x="169" y="412"></point>
      <point x="157" y="411" type="curve" smooth="yes"></point>
    </contour>
  </outline>
</glyph>
<glyph name="ordmasculine" format="1">
  <advance width="453"></advance>
  <unicode hex="00BA"></unicode>
  <outline>
    <contour>
      <point x="226" y="331" type="curve" smooth="yes"></point>
      <point x="173" y="331"></point>
      <point x="160" y="380"></point>
      <point x="160" y="442" type="curve" smooth="yes"></point>
      <point x="160" y="495"></point>
      <point x="178" y="537"></point>
      <point x="225" y="537" type="curve" smooth="yes"></point>
      <point x="277" y="537"></point>
      <point x="293" y="499"></point>
      <point x="293" y="432" type="curve" smooth="yes"></point>
      <point x="293" y="364"></point>
      <point x="272" y="331"></point>
    </contour>
    <contour>
      <point x="66" y="430" type="curve" smooth="yes"></point>
      <point x="66" y="322"></point>
      <point x="123" y="256"></point>
      <point x="222" y="256" type="curve" smooth="yes"></point>
      <point x="319" y="256"></point>
      <point x="387" y="321"></point>
      <point x="387" y="443" type="curve" smooth="yes"></point>
      <point x="387" y="577"></point>
      <point x="300" y="611"></point>
      <point x="230" y="611" type="curve" smooth="yes"></point>
      <point x="159" y="611"></point>
      <point x="66" y="571"></point>
    </contour>
  </outline>
</glyph>
<glyph name="guillemotright" format="1">
  <advance width="516"></advance>
  <unicode hex="00BB"></unicode>
  <outline>
    <contour>
      <point x="153" y="263" type="line"></point>
      <point x="40" y="105" type="line"></point>
      <point x="87" y="63" type="line"></point>
      <point x="259" y="221" type="line" smooth="yes"></point>
      <point x="272" y="233"></point>
      <point x="279" y="252"></point>
      <point x="279" y="266" type="curve" smooth="yes"></point>
      <point x="279" y="285"></point>
      <point x="270" y="301"></point>
      <point x="250" y="317" type="curve" smooth="yes"></point>
      <point x="80" y="453" type="line"></point>
      <point x="33" y="408" type="line"></point>
    </contour>
    <contour>
      <point x="357" y="263" type="line"></point>
      <point x="244" y="105" type="line"></point>
      <point x="291" y="63" type="line"></point>
      <point x="463" y="221" type="line" smooth="yes"></point>
      <point x="476" y="233"></point>
      <point x="483" y="252"></point>
      <point x="483" y="266" type="curve" smooth="yes"></point>
      <point x="483" y="285"></point>
      <point x="474" y="301"></point>
      <point x="454" y="317" type="curve" smooth="yes"></point>
      <point x="284" y="453" type="line"></point>
      <point x="237" y="408" type="line"></point>
    </contour>
  </outline>
</glyph>
<glyph name="onequarter" format="1">
  <advance width="718"></advance>
  <unicode hex="00BC"></unicode>
  <outline>
    <contour>
      <point x="3" y="327" type="line"></point>
      <point x="3" y="261" type="line"></point>
      <point x="236" y="261" type="line"></point>
      <point x="236" y="328" type="line"></point>
      <point x="166" y="331" type="line"></point>
      <point x="166" y="651" type="line"></point>
      <point x="93" y="651" type="line"></point>
      <point x="-31" y="580" type="line"></point>
      <point x="-2" y="523" type="line"></point>
      <point x="78" y="559" type="line"></point>
      <point x="78" y="347" type="line" smooth="yes"></point>
      <point x="78" y="336"></point>
      <point x="74" y="332"></point>
      <point x="62" y="331" type="curve" smooth="yes"></point>
    </contour>
    <contour>
      <point x="225" y="-41" type="line"></point>
      <point x="551" y="653" type="line"></point>
      <point x="473" y="686" type="line"></point>
      <point x="149" y="-6" type="line"></point>
    </contour>
    <contour>
      <point x="565" y="86" type="line" smooth="yes"></point>
      <point x="565" y="75"></point>
      <point x="561" y="71"></point>
      <point x="549" y="70" type="curve" smooth="yes"></point>
      <point x="490" y="66" type="line"></point>
      <point x="490" y="0" type="line"></point>
      <point x="723" y="0" type="line"></point>
      <point x="723" y="67" type="line"></point>
      <point x="652" y="70" type="line"></point>
      <point x="652" y="111" type="line"></point>
      <point x="713" y="111" type="line"></point>
      <point x="713" y="182" type="line"></point>
      <point x="652" y="182" type="line"></point>
      <point x="652" y="258" type="line"></point>
      <point x="599" y="258" type="line"></point>
      <point x="570" y="182" type="line"></point>
      <point x="502" y="182" type="line"></point>
      <point x="594" y="371" type="line"></point>
      <point x="525" y="403" type="line"></point>
      <point x="413" y="171" type="line"></point>
      <point x="413" y="113" type="line"></point>
      <point x="565" y="113" type="line"></point>
    </contour>
  </outline>
</glyph>
<glyph name="onehalf" format="1">
  <advance width="730"></advance>
  <unicode hex="00BD"></unicode>
  <outline>
    <contour>
      <point x="3" y="327" type="line"></point>
      <point x="3" y="261" type="line"></point>
      <point x="236" y="261" type="line"></point>
      <point x="236" y="328" type="line"></point>
      <point x="166" y="331" type="line"></point>
      <point x="166" y="651" type="line"></point>
      <point x="93" y="651" type="line"></point>
      <point x="-31" y="580" type="line"></point>
      <point x="-2" y="523" type="line"></point>
      <point x="78" y="559" type="line"></point>
      <point x="78" y="347" type="line" smooth="yes"></point>
      <point x="78" y="336"></point>
      <point x="74" y="332"></point>
      <point x="62" y="331" type="curve" smooth="yes"></point>
    </contour>
    <contour>
      <point x="216" y="-41" type="line"></point>
      <point x="542" y="653" type="line"></point>
      <point x="464" y="686" type="line"></point>
      <point x="140" y="-6" type="line"></point>
    </contour>
    <contour>
      <point x="586" y="396" type="curve" smooth="yes"></point>
      <point x="531" y="396"></point>
      <point x="481" y="382"></point>
      <point x="436" y="359" type="curve"></point>
      <point x="436" y="250" type="line"></point>
      <point x="512" y="246" type="line"></point>
      <point x="512" y="291" type="line" smooth="yes"></point>
      <point x="512" y="305"></point>
      <point x="512" y="311"></point>
      <point x="526" y="317" type="curve" smooth="yes"></point>
      <point x="535" y="321"></point>
      <point x="547" y="324"></point>
      <point x="569" y="324" type="curve" smooth="yes"></point>
      <point x="596" y="324"></point>
      <point x="616" y="310"></point>
      <point x="616" y="282" type="curve" smooth="yes"></point>
      <point x="616" y="254"></point>
      <point x="597" y="232"></point>
      <point x="572" y="202" type="curve" smooth="yes"></point>
      <point x="448" y="58" type="line"></point>
      <point x="448" y="0" type="line"></point>
      <point x="723" y="0" type="line"></point>
      <point x="723" y="75" type="line"></point>
      <point x="565" y="75" type="line"></point>
      <point x="654" y="176" type="line" smooth="yes"></point>
      <point x="689" y="217"></point>
      <point x="710" y="248"></point>
      <point x="710" y="296" type="curve" smooth="yes"></point>
      <point x="710" y="352"></point>
      <point x="670" y="396"></point>
    </contour>
  </outline>
</glyph>
<glyph name="threequarters" format="1">
  <advance width="693"></advance>
  <unicode hex="00BE"></unicode>
  <outline>
    <contour>
      <point x="36" y="491" type="line"></point>
      <point x="30" y="425" type="line"></point>
      <point x="62" y="425" type="line" smooth="yes"></point>
      <point x="122" y="425"></point>
      <point x="146" y="409"></point>
      <point x="146" y="373" type="curve" smooth="yes"></point>
      <point x="146" y="336"></point>
      <point x="117" y="326"></point>
      <point x="83" y="326" type="curve" smooth="yes"></point>
      <point x="52" y="326"></point>
      <point x="12" y="338"></point>
      <point x="-14" y="352" type="curve"></point>
      <point x="-37" y="287" type="line"></point>
      <point x="-13" y="272"></point>
      <point x="38" y="256"></point>
      <point x="87" y="256" type="curve" smooth="yes"></point>
      <point x="186" y="256"></point>
      <point x="233" y="309"></point>
      <point x="233" y="379" type="curve" smooth="yes"></point>
      <point x="233" y="411"></point>
      <point x="221" y="448"></point>
      <point x="169" y="464" type="curve"></point>
      <point x="204" y="488"></point>
      <point x="226" y="518"></point>
      <point x="226" y="561" type="curve" smooth="yes"></point>
      <point x="226" y="616"></point>
      <point x="184" y="657"></point>
      <point x="104" y="657" type="curve" smooth="yes"></point>
      <point x="54" y="657"></point>
      <point x="3" y="643"></point>
      <point x="-29" y="627" type="curve"></point>
      <point x="-29" y="532" type="line"></point>
      <point x="40" y="527" type="line"></point>
      <point x="40" y="560" type="line" smooth="yes"></point>
      <point x="40" y="572"></point>
      <point x="40" y="578"></point>
      <point x="53" y="582" type="curve" smooth="yes"></point>
      <point x="62" y="585"></point>
      <point x="74" y="587"></point>
      <point x="89" y="587" type="curve" smooth="yes"></point>
      <point x="120" y="587"></point>
      <point x="139" y="577"></point>
      <point x="139" y="546" type="curve" smooth="yes"></point>
      <point x="139" y="521"></point>
      <point x="123" y="504"></point>
      <point x="101" y="491" type="curve"></point>
    </contour>
    <contour>
      <point x="206" y="-41" type="line"></point>
      <point x="532" y="653" type="line"></point>
      <point x="454" y="686" type="line"></point>
      <point x="130" y="-6" type="line"></point>
    </contour>
    <contour>
      <point x="547" y="86" type="line" smooth="yes"></point>
      <point x="547" y="75"></point>
      <point x="543" y="71"></point>
      <point x="531" y="70" type="curve" smooth="yes"></point>
      <point x="472" y="66" type="line"></point>
      <point x="472" y="0" type="line"></point>
      <point x="705" y="0" type="line"></point>
      <point x="705" y="67" type="line"></point>
      <point x="634" y="70" type="line"></point>
      <point x="634" y="111" type="line"></point>
      <point x="695" y="111" type="line"></point>
      <point x="695" y="182" type="line"></point>
      <point x="634" y="182" type="line"></point>
      <point x="634" y="258" type="line"></point>
      <point x="581" y="258" type="line"></point>
      <point x="552" y="182" type="line"></point>
      <point x="484" y="182" type="line"></point>
      <point x="576" y="371" type="line"></point>
      <point x="507" y="403" type="line"></point>
      <point x="395" y="171" type="line"></point>
      <point x="395" y="113" type="line"></point>
      <point x="547" y="113" type="line"></point>
    </contour>
  </outline>
</glyph>
<glyph name="Aacute" format="1">
  <advance width="617"></advance>
  <unicode hex="00C1"></unicode>
  <outline>
    <contour>
      <point x="43" y="112" type="line" smooth="yes"></point>
      <point x="36" y="93"></point>
      <point x="30" y="86"></point>
      <point x="13" y="84" type="curve" smooth="yes"></point>
      <point x="-19" y="81" type="line"></point>
      <point x="-19" y="0" type="line"></point>
      <point x="211" y="0" type="line"></point>
      <point x="211" y="85" type="line"></point>
      <point x="151" y="88" type="line"></point>
      <point x="181" y="176" type="line"></point>
      <point x="415" y="176" type="line"></point>
      <point x="436" y="114" type="line" smooth="yes"></point>
      <point x="443" y="92"></point>
      <point x="433" y="86"></point>
      <point x="412" y="84" type="curve" smooth="yes"></point>
      <point x="374" y="81" type="line"></point>
      <point x="374" y="0" type="line"></point>
      <point x="632" y="0" type="line"></point>
      <point x="632" y="85" type="line"></point>
      <point x="575" y="88" type="line"></point>
      <point x="574" y="88" type="line"></point>
      <point x="370" y="665" type="line"></point>
      <point x="141" y="665" type="line"></point>
      <point x="141" y="584" type="line"></point>
      <point x="204" y="578" type="line"></point>
    </contour>
    <contour>
      <point x="298" y="553" type="line"></point>
      <point x="301" y="553" type="line"></point>
      <point x="391" y="268" type="line"></point>
      <point x="205" y="268" type="line"></point>
    </contour>
    <contour>
      <point x="196" y="750" type="line"></point>
      <point x="226" y="709" type="line"></point>
      <point x="381" y="796" type="line" smooth="yes"></point>
      <point x="417" y="816"></point>
      <point x="430" y="847"></point>
      <point x="398" y="874" type="curve" smooth="yes"></point>
      <point x="358" y="907" type="line"></point>
    </contour>
  </outline>
</glyph>
<glyph name="Acircumflex" format="1">
  <advance width="617"></advance>
  <unicode hex="00C2"></unicode>
  <outline>
    <contour>
      <point x="43" y="112" type="line" smooth="yes"></point>
      <point x="36" y="93"></point>
      <point x="30" y="86"></point>
      <point x="13" y="84" type="curve" smooth="yes"></point>
      <point x="-19" y="81" type="line"></point>
      <point x="-19" y="0" type="line"></point>
      <point x="211" y="0" type="line"></point>
      <point x="211" y="85" type="line"></point>
      <point x="151" y="88" type="line"></point>
      <point x="181" y="176" type="line"></point>
      <point x="415" y="176" type="line"></point>
      <point x="436" y="114" type="line" smooth="yes"></point>
      <point x="443" y="92"></point>
      <point x="433" y="86"></point>
      <point x="412" y="84" type="curve" smooth="yes"></point>
      <point x="374" y="81" type="line"></point>
      <point x="374" y="0" type="line"></point>
      <point x="632" y="0" type="line"></point>
      <point x="632" y="85" type="line"></point>
      <point x="575" y="88" type="line"></point>
      <point x="574" y="88" type="line"></point>
      <point x="370" y="665" type="line"></point>
      <point x="141" y="665" type="line"></point>
      <point x="141" y="584" type="line"></point>
      <point x="204" y="578" type="line"></point>
    </contour>
    <contour>
      <point x="298" y="553" type="line"></point>
      <point x="301" y="553" type="line"></point>
      <point x="391" y="268" type="line"></point>
      <point x="205" y="268" type="line"></point>
    </contour>
    <contour>
      <point x="156" y="708" type="line"></point>
      <point x="274" y="794" type="line"></point>
      <point x="394" y="708" type="line"></point>
      <point x="435" y="743" type="line"></point>
      <point x="315" y="872" type="line" smooth="yes"></point>
      <point x="290" y="898"></point>
      <point x="261" y="900"></point>
      <point x="233" y="870" type="curve" smooth="yes"></point>
      <point x="115" y="742" type="line"></point>
    </contour>
  </outline>
</glyph>
<glyph name="Atilde" format="1">
  <advance width="617"></advance>
  <unicode hex="00C3"></unicode>
  <outline>
    <contour>
      <point x="43" y="112" type="line" smooth="yes"></point>
      <point x="36" y="93"></point>
      <point x="30" y="86"></point>
      <point x="13" y="84" type="curve" smooth="yes"></point>
      <point x="-19" y="81" type="line"></point>
      <point x="-19" y="0" type="line"></point>
      <point x="211" y="0" type="line"></point>
      <point x="211" y="85" type="line"></point>
      <point x="151" y="88" type="line"></point>
      <point x="181" y="176" type="line"></point>
      <point x="415" y="176" type="line"></point>
      <point x="436" y="114" type="line" smooth="yes"></point>
      <point x="443" y="92"></point>
      <point x="433" y="86"></point>
      <point x="412" y="84" type="curve" smooth="yes"></point>
      <point x="374" y="81" type="line"></point>
      <point x="374" y="0" type="line"></point>
      <point x="632" y="0" type="line"></point>
      <point x="632" y="85" type="line"></point>
      <point x="575" y="88" type="line"></point>
      <point x="574" y="88" type="line"></point>
      <point x="370" y="665" type="line"></point>
      <point x="141" y="665" type="line"></point>
      <point x="141" y="584" type="line"></point>
      <point x="204" y="578" type="line"></point>
    </contour>
    <contour>
      <point x="298" y="553" type="line"></point>
      <point x="301" y="553" type="line"></point>
      <point x="391" y="268" type="line"></point>
      <point x="205" y="268" type="line"></point>
    </contour>
    <contour>
      <point x="159" y="728" type="line"></point>
      <point x="180" y="752"></point>
      <point x="190" y="757"></point>
      <point x="217" y="757" type="curve" smooth="yes"></point>
      <point x="250" y="757"></point>
      <point x="301" y="730"></point>
      <point x="342" y="730" type="curve" smooth="yes"></point>
      <point x="390" y="730"></point>
      <point x="422" y="757"></point>
      <point x="445" y="817" type="curve"></point>
      <point x="391" y="846" type="line"></point>
      <point x="379" y="826"></point>
      <point x="362" y="814"></point>
      <point x="347" y="814" type="curve" smooth="yes"></point>
      <point x="309" y="814"></point>
      <point x="259" y="842"></point>
      <point x="213" y="842" type="curve" smooth="yes"></point>
      <point x="174" y="842"></point>
      <point x="136" y="818"></point>
      <point x="111" y="763" type="curve"></point>
    </contour>
  </outline>
</glyph>
<glyph name="Adieresis" format="1">
  <advance width="617"></advance>
  <unicode hex="00C4"></unicode>
  <outline>
    <contour>
      <point x="43" y="112" type="line" smooth="yes"></point>
      <point x="36" y="93"></point>
      <point x="30" y="86"></point>
      <point x="13" y="84" type="curve" smooth="yes"></point>
      <point x="-19" y="81" type="line"></point>
      <point x="-19" y="0" type="line"></point>
      <point x="211" y="0" type="line"></point>
      <point x="211" y="85" type="line"></point>
      <point x="151" y="88" type="line"></point>
      <point x="181" y="176" type="line"></point>
      <point x="415" y="176" type="line"></point>
      <point x="436" y="114" type="line" smooth="yes"></point>
      <point x="443" y="92"></point>
      <point x="433" y="86"></point>
      <point x="412" y="84" type="curve" smooth="yes"></point>
      <point x="374" y="81" type="line"></point>
      <point x="374" y="0" type="line"></point>
      <point x="632" y="0" type="line"></point>
      <point x="632" y="85" type="line"></point>
      <point x="575" y="88" type="line"></point>
      <point x="574" y="88" type="line"></point>
      <point x="370" y="665" type="line"></point>
      <point x="141" y="665" type="line"></point>
      <point x="141" y="584" type="line"></point>
      <point x="204" y="578" type="line"></point>
    </contour>
    <contour>
      <point x="298" y="553" type="line"></point>
      <point x="301" y="553" type="line"></point>
      <point x="391" y="268" type="line"></point>
      <point x="205" y="268" type="line"></point>
    </contour>
    <contour>
      <point x="309" y="787" type="curve" smooth="yes"></point>
      <point x="309" y="749"></point>
      <point x="336" y="721"></point>
      <point x="378" y="721" type="curve" smooth="yes"></point>
      <point x="418" y="721"></point>
      <point x="447" y="749"></point>
      <point x="447" y="787" type="curve" smooth="yes"></point>
      <point x="447" y="824"></point>
      <point x="419" y="854"></point>
      <point x="378" y="854" type="curve" smooth="yes"></point>
      <point x="337" y="854"></point>
      <point x="309" y="824"></point>
    </contour>
    <contour>
      <point x="109" y="787" type="curve" smooth="yes"></point>
      <point x="109" y="749"></point>
      <point x="136" y="721"></point>
      <point x="178" y="721" type="curve" smooth="yes"></point>
      <point x="218" y="721"></point>
      <point x="247" y="749"></point>
      <point x="247" y="787" type="curve" smooth="yes"></point>
      <point x="247" y="824"></point>
      <point x="219" y="854"></point>
      <point x="178" y="854" type="curve" smooth="yes"></point>
      <point x="137" y="854"></point>
      <point x="109" y="824"></point>
    </contour>
  </outline>
</glyph>
<glyph name="Aring" format="1">
  <advance width="617"></advance>
  <unicode hex="00C5"></unicode>
  <outline>
    <contour>
      <point x="43" y="112" type="line" smooth="yes"></point>
      <point x="36" y="93"></point>
      <point x="30" y="86"></point>
      <point x="13" y="84" type="curve" smooth="yes"></point>
      <point x="-19" y="81" type="line"></point>
      <point x="-19" y="0" type="line"></point>
      <point x="211" y="0" type="line"></point>
      <point x="211" y="85" type="line"></point>
      <point x="151" y="88" type="line"></point>
      <point x="181" y="176" type="line"></point>
      <point x="415" y="176" type="line"></point>
      <point x="436" y="114" type="line" smooth="yes"></point>
      <point x="443" y="92"></point>
      <point x="433" y="86"></point>
      <point x="412" y="84" type="curve" smooth="yes"></point>
      <point x="374" y="81" type="line"></point>
      <point x="374" y="0" type="line"></point>
      <point x="632" y="0" type="line"></point>
      <point x="632" y="85" type="line"></point>
      <point x="575" y="88" type="line"></point>
      <point x="574" y="88" type="line"></point>
      <point x="370" y="665" type="line"></point>
      <point x="141" y="665" type="line"></point>
      <point x="141" y="584" type="line"></point>
      <point x="204" y="578" type="line"></point>
    </contour>
    <contour>
      <point x="298" y="553" type="line"></point>
      <point x="301" y="553" type="line"></point>
      <point x="391" y="268" type="line"></point>
      <point x="205" y="268" type="line"></point>
    </contour>
    <contour>
      <point x="185" y="793" type="curve" smooth="yes"></point>
      <point x="185" y="741"></point>
      <point x="218" y="700"></point>
      <point x="277" y="700" type="curve" smooth="yes"></point>
      <point x="336" y="700"></point>
      <point x="373" y="741"></point>
      <point x="373" y="798" type="curve" smooth="yes"></point>
      <point x="373" y="846"></point>
      <point x="339" y="886"></point>
      <point x="280" y="886" type="curve" smooth="yes"></point>
      <point x="224" y="886"></point>
      <point x="185" y="847"></point>
    </contour>
    <contour>
      <point x="244" y="793" type="curve" smooth="yes"></point>
      <point x="244" y="818"></point>
      <point x="254" y="834"></point>
      <point x="280" y="834" type="curve" smooth="yes"></point>
      <point x="305" y="834"></point>
      <point x="316" y="818"></point>
      <point x="316" y="793" type="curve" smooth="yes"></point>
      <point x="316" y="770"></point>
      <point x="304" y="751"></point>
      <point x="280" y="751" type="curve" smooth="yes"></point>
      <point x="256" y="751"></point>
      <point x="244" y="769"></point>
    </contour>
  </outline>
</glyph>
<glyph name="AE" format="1">
  <advance width="781"></advance>
  <unicode hex="00C6"></unicode>
  <outline>
    <contour>
      <point x="19" y="112" type="line" smooth="yes"></point>
      <point x="12" y="93"></point>
      <point x="6" y="86"></point>
      <point x="-10" y="84" type="curve" smooth="yes"></point>
      <point x="-43" y="81" type="line"></point>
      <point x="-43" y="0" type="line"></point>
      <point x="187" y="0" type="line"></point>
      <point x="187" y="85" type="line"></point>
      <point x="127" y="88" type="line"></point>
      <point x="157" y="176" type="line"></point>
      <point x="391" y="176" type="line"></point>
      <point x="412" y="114" type="line" smooth="yes"></point>
      <point x="419" y="92"></point>
      <point x="409" y="86"></point>
      <point x="388" y="84" type="curve" smooth="yes"></point>
      <point x="350" y="81" type="line"></point>
      <point x="350" y="0" type="line"></point>
      <point x="770" y="0" type="line"></point>
      <point x="770" y="178" type="line"></point>
      <point x="668" y="185" type="line"></point>
      <point x="668" y="135" type="line" smooth="yes"></point>
      <point x="668" y="115"></point>
      <point x="666" y="103"></point>
      <point x="640" y="103" type="curve" smooth="yes"></point>
      <point x="545" y="103" type="line"></point>
      <point x="479" y="290" type="line"></point>
      <point x="710" y="290" type="line"></point>
      <point x="710" y="392" type="line"></point>
      <point x="461" y="392" type="line"></point>
      <point x="402" y="563" type="line"></point>
      <point x="627" y="563" type="line" smooth="yes"></point>
      <point x="654" y="563"></point>
      <point x="656" y="551"></point>
      <point x="656" y="532" type="curve" smooth="yes"></point>
      <point x="656" y="492" type="line"></point>
      <point x="758" y="499" type="line"></point>
      <point x="758" y="665" type="line"></point>
      <point x="117" y="665" type="line"></point>
      <point x="117" y="584" type="line"></point>
      <point x="180" y="578" type="line"></point>
    </contour>
    <contour>
      <point x="274" y="553" type="line"></point>
      <point x="277" y="553" type="line"></point>
      <point x="367" y="268" type="line"></point>
      <point x="181" y="268" type="line"></point>
    </contour>
  </outline>
</glyph>
<glyph name="Ccedilla" format="1">
  <advance width="617"></advance>
  <unicode hex="00C7"></unicode>
  <outline>
    <contour>
      <point x="418" y="570" type="curve" smooth="yes"></point>
      <point x="436" y="564"></point>
      <point x="439" y="556"></point>
      <point x="439" y="537" type="curve" smooth="yes"></point>
      <point x="439" y="459" type="line"></point>
      <point x="541" y="466" type="line"></point>
      <point x="541" y="636" type="line"></point>
      <point x="481" y="664"></point>
      <point x="412" y="677"></point>
      <point x="353" y="677" type="curve" smooth="yes"></point>
      <point x="199" y="677"></point>
      <point x="39" y="590"></point>
      <point x="39" y="329" type="curve" smooth="yes"></point>
      <point x="39" y="123"></point>
      <point x="130" y="10"></point>
      <point x="297" y="-9" type="curve"></point>
      <point x="265" y="-110" type="line"></point>
      <point x="318" y="-110"></point>
      <point x="353" y="-117"></point>
      <point x="353" y="-148" type="curve" smooth="yes"></point>
      <point x="353" y="-168"></point>
      <point x="340" y="-185"></point>
      <point x="305" y="-185" type="curve" smooth="yes"></point>
      <point x="282" y="-185"></point>
      <point x="253" y="-177"></point>
      <point x="238" y="-172" type="curve"></point>
      <point x="222" y="-224" type="line"></point>
      <point x="245" y="-234"></point>
      <point x="279" y="-242"></point>
      <point x="312" y="-242" type="curve" smooth="yes"></point>
      <point x="367" y="-242"></point>
      <point x="434" y="-218"></point>
      <point x="434" y="-145" type="curve" smooth="yes"></point>
      <point x="434" y="-94"></point>
      <point x="394" y="-67"></point>
      <point x="341" y="-63" type="curve"></point>
      <point x="354" y="-13" type="line"></point>
      <point x="418" y="-13"></point>
      <point x="496" y="-1"></point>
      <point x="551" y="28" type="curve"></point>
      <point x="551" y="201" type="line"></point>
      <point x="449" y="208" type="line"></point>
      <point x="449" y="128" type="line" smooth="yes"></point>
      <point x="449" y="109"></point>
      <point x="446" y="101"></point>
      <point x="428" y="95" type="curve" smooth="yes"></point>
      <point x="409" y="89"></point>
      <point x="383" y="86"></point>
      <point x="355" y="86" type="curve" smooth="yes"></point>
      <point x="216" y="83"></point>
      <point x="164" y="180"></point>
      <point x="164" y="337" type="curve" smooth="yes"></point>
      <point x="164" y="488"></point>
      <point x="227" y="578"></point>
      <point x="353" y="578" type="curve" smooth="yes"></point>
      <point x="373" y="578"></point>
      <point x="399" y="576"></point>
    </contour>
  </outline>
</glyph>
<glyph name="Egrave" format="1">
  <advance width="541"></advance>
  <unicode hex="00C8"></unicode>
  <outline>
    <contour>
      <point x="496" y="0" type="line"></point>
      <point x="496" y="178" type="line"></point>
      <point x="394" y="185" type="line"></point>
      <point x="394" y="135" type="line" smooth="yes"></point>
      <point x="394" y="115"></point>
      <point x="392" y="103"></point>
      <point x="366" y="103" type="curve" smooth="yes"></point>
      <point x="205" y="103" type="line"></point>
      <point x="205" y="290" type="line"></point>
      <point x="436" y="290" type="line"></point>
      <point x="436" y="392" type="line"></point>
      <point x="205" y="392" type="line"></point>
      <point x="205" y="563" type="line"></point>
      <point x="353" y="563" type="line" smooth="yes"></point>
      <point x="380" y="563"></point>
      <point x="382" y="551"></point>
      <point x="382" y="532" type="curve" smooth="yes"></point>
      <point x="382" y="492" type="line"></point>
      <point x="484" y="499" type="line"></point>
      <point x="484" y="665" type="line"></point>
      <point x="26" y="665" type="line"></point>
      <point x="26" y="580" type="line"></point>
      <point x="83" y="577" type="line"></point>
      <point x="83" y="112" type="line" smooth="yes"></point>
      <point x="83" y="92"></point>
      <point x="71" y="86"></point>
      <point x="54" y="84" type="curve" smooth="yes"></point>
      <point x="21" y="81" type="line"></point>
      <point x="21" y="0" type="line"></point>
    </contour>
    <contour>
      <point x="201" y="907" type="line"></point>
      <point x="161" y="874" type="line" smooth="yes"></point>
      <point x="128" y="846"></point>
      <point x="142" y="816"></point>
      <point x="178" y="796" type="curve" smooth="yes"></point>
      <point x="333" y="709" type="line"></point>
      <point x="363" y="750" type="line"></point>
    </contour>
  </outline>
</glyph>
<glyph name="Edieresis" format="1">
  <advance width="541"></advance>
  <unicode hex="00CB"></unicode>
  <outline>
    <contour>
      <point x="496" y="0" type="line"></point>
      <point x="496" y="178" type="line"></point>
      <point x="394" y="185" type="line"></point>
      <point x="394" y="135" type="line" smooth="yes"></point>
      <point x="394" y="115"></point>
      <point x="392" y="103"></point>
      <point x="366" y="103" type="curve" smooth="yes"></point>
      <point x="205" y="103" type="line"></point>
      <point x="205" y="290" type="line"></point>
      <point x="436" y="290" type="line"></point>
      <point x="436" y="392" type="line"></point>
      <point x="205" y="392" type="line"></point>
      <point x="205" y="563" type="line"></point>
      <point x="353" y="563" type="line" smooth="yes"></point>
      <point x="380" y="563"></point>
      <point x="382" y="551"></point>
      <point x="382" y="532" type="curve" smooth="yes"></point>
      <point x="382" y="492" type="line"></point>
      <point x="484" y="499" type="line"></point>
      <point x="484" y="665" type="line"></point>
      <point x="26" y="665" type="line"></point>
      <point x="26" y="580" type="line"></point>
      <point x="83" y="577" type="line"></point>
      <point x="83" y="112" type="line" smooth="yes"></point>
      <point x="83" y="92"></point>
      <point x="71" y="86"></point>
      <point x="54" y="84" type="curve" smooth="yes"></point>
      <point x="21" y="81" type="line"></point>
      <point x="21" y="0" type="line"></point>
    </contour>
    <contour>
      <point x="294" y="787" type="curve" smooth="yes"></point>
      <point x="294" y="749"></point>
      <point x="321" y="721"></point>
      <point x="363" y="721" type="curve" smooth="yes"></point>
      <point x="403" y="721"></point>
      <point x="432" y="749"></point>
      <point x="432" y="787" type="curve" smooth="yes"></point>
      <point x="432" y="824"></point>
      <point x="404" y="854"></point>
      <point x="363" y="854" type="curve" smooth="yes"></point>
      <point x="322" y="854"></point>
      <point x="294" y="824"></point>
    </contour>
    <contour>
      <point x="94" y="787" type="curve" smooth="yes"></point>
      <point x="94" y="749"></point>
      <point x="121" y="721"></point>
      <point x="163" y="721" type="curve" smooth="yes"></point>
      <point x="203" y="721"></point>
      <point x="232" y="749"></point>
      <point x="232" y="787" type="curve" smooth="yes"></point>
      <point x="232" y="824"></point>
      <point x="204" y="854"></point>
      <point x="163" y="854" type="curve" smooth="yes"></point>
      <point x="122" y="854"></point>
      <point x="94" y="824"></point>
    </contour>
  </outline>
</glyph>
<glyph name="Igrave" format="1">
  <advance width="390"></advance>
  <unicode hex="00CC"></unicode>
  <outline>
    <contour>
      <point x="149" y="117" type="line" smooth="yes"></point>
      <point x="149" y="92"></point>
      <point x="139" y="86"></point>
      <point x="120" y="84" type="curve" smooth="yes"></point>
      <point x="87" y="81" type="line"></point>
      <point x="87" y="0" type="line"></point>
      <point x="329" y="0" type="line"></point>
      <point x="329" y="85" type="line"></point>
      <point x="272" y="88" type="line"></point>
      <point x="272" y="549" type="line" smooth="yes"></point>
      <point x="272" y="573"></point>
      <point x="284" y="579"></point>
      <point x="301" y="581" type="curve" smooth="yes"></point>
      <point x="334" y="584" type="line"></point>
      <point x="334" y="665" type="line"></point>
      <point x="92" y="665" type="line"></point>
      <point x="92" y="580" type="line"></point>
      <point x="149" y="577" type="line"></point>
    </contour>
    <contour>
      <point x="141" y="907" type="line"></point>
      <point x="101" y="874" type="line" smooth="yes"></point>
      <point x="68" y="846"></point>
      <point x="82" y="816"></point>
      <point x="118" y="796" type="curve" smooth="yes"></point>
      <point x="273" y="709" type="line"></point>
      <point x="303" y="750" type="line"></point>
    </contour>
  </outline>
</glyph>
<glyph name="Iacute" format="1">
  <advance width="390"></advance>
  <unicode hex="00CD"></unicode>
  <outline>
    <contour>
      <point x="116" y="117" type="line" smooth="yes"></point>
      <point x="116" y="92"></point>
      <point x="106" y="86"></point>
      <point x="87" y="84" type="curve" smooth="yes"></point>
      <point x="54" y="81" type="line"></point>
      <point x="54" y="0" type="line"></point>
      <point x="296" y="0" type="line"></point>
      <point x="296" y="85" type="line"></point>
      <point x="239" y="88" type="line"></point>
      <point x="239" y="549" type="line" smooth="yes"></point>
      <point x="239" y="573"></point>
      <point x="251" y="579"></point>
      <point x="268" y="581" type="curve" smooth="yes"></point>
      <point x="301" y="584" type="line"></point>
      <point x="301" y="665" type="line"></point>
      <point x="59" y="665" type="line"></point>
      <point x="59" y="580" type="line"></point>
      <point x="116" y="577" type="line"></point>
    </contour>
    <contour>
      <point x="86" y="750" type="line"></point>
      <point x="116" y="709" type="line"></point>
      <point x="271" y="796" type="line" smooth="yes"></point>
      <point x="307" y="816"></point>
      <point x="320" y="847"></point>
      <point x="288" y="874" type="curve" smooth="yes"></point>
      <point x="248" y="907" type="line"></point>
    </contour>
  </outline>
</glyph>
<glyph name="Icircumflex" format="1">
  <advance width="428"></advance>
  <unicode hex="00CE"></unicode>
  <outline>
    <contour>
      <point x="148" y="117" type="line" smooth="yes"></point>
      <point x="148" y="92"></point>
      <point x="138" y="86"></point>
      <point x="119" y="84" type="curve" smooth="yes"></point>
      <point x="86" y="81" type="line"></point>
      <point x="86" y="0" type="line"></point>
      <point x="328" y="0" type="line"></point>
      <point x="328" y="85" type="line"></point>
      <point x="271" y="88" type="line"></point>
      <point x="271" y="549" type="line" smooth="yes"></point>
      <point x="271" y="573"></point>
      <point x="283" y="579"></point>
      <point x="300" y="581" type="curve" smooth="yes"></point>
      <point x="333" y="584" type="line"></point>
      <point x="333" y="665" type="line"></point>
      <point x="91" y="665" type="line"></point>
      <point x="91" y="580" type="line"></point>
      <point x="148" y="577" type="line"></point>
    </contour>
    <contour>
      <point x="92" y="708" type="line"></point>
      <point x="210" y="794" type="line"></point>
      <point x="330" y="708" type="line"></point>
      <point x="371" y="743" type="line"></point>
      <point x="251" y="872" type="line" smooth="yes"></point>
      <point x="226" y="898"></point>
      <point x="197" y="900"></point>
      <point x="169" y="870" type="curve" smooth="yes"></point>
      <point x="51" y="742" type="line"></point>
    </contour>
  </outline>
</glyph>
<glyph name="Idieresis" format="1">
  <advance width="428"></advance>
  <unicode hex="00CF"></unicode>
  <outline>
    <contour>
      <point x="149" y="117" type="line" smooth="yes"></point>
      <point x="149" y="92"></point>
      <point x="139" y="86"></point>
      <point x="120" y="84" type="curve" smooth="yes"></point>
      <point x="87" y="81" type="line"></point>
      <point x="87" y="0" type="line"></point>
      <point x="329" y="0" type="line"></point>
      <point x="329" y="85" type="line"></point>
      <point x="272" y="88" type="line"></point>
      <point x="272" y="549" type="line" smooth="yes"></point>
      <point x="272" y="573"></point>
      <point x="284" y="579"></point>
      <point x="301" y="581" type="curve" smooth="yes"></point>
      <point x="334" y="584" type="line"></point>
      <point x="334" y="665" type="line"></point>
      <point x="92" y="665" type="line"></point>
      <point x="92" y="580" type="line"></point>
      <point x="149" y="577" type="line"></point>
    </contour>
    <contour>
      <point x="245" y="787" type="curve" smooth="yes"></point>
      <point x="245" y="749"></point>
      <point x="272" y="721"></point>
      <point x="314" y="721" type="curve" smooth="yes"></point>
      <point x="354" y="721"></point>
      <point x="383" y="749"></point>
      <point x="383" y="787" type="curve" smooth="yes"></point>
      <point x="383" y="824"></point>
      <point x="355" y="854"></point>
      <point x="314" y="854" type="curve" smooth="yes"></point>
      <point x="273" y="854"></point>
      <point x="245" y="824"></point>
    </contour>
    <contour>
      <point x="45" y="787" type="curve" smooth="yes"></point>
      <point x="45" y="749"></point>
      <point x="72" y="721"></point>
      <point x="114" y="721" type="curve" smooth="yes"></point>
      <point x="154" y="721"></point>
      <point x="183" y="749"></point>
      <point x="183" y="787" type="curve" smooth="yes"></point>
      <point x="183" y="824"></point>
      <point x="155" y="854"></point>
      <point x="114" y="854" type="curve" smooth="yes"></point>
      <point x="73" y="854"></point>
      <point x="45" y="824"></point>
    </contour>
  </outline>
</glyph>
